<?xml version="1.0" encoding="utf-8"?>
<!-- Generator: Adobe Illustrator 16.0.3, SVG Export Plug-In . SVG Version: 6.00 Build 0)  -->
<!DOCTYPE svg PUBLIC "-//W3C//DTD SVG 1.1//EN" "http://www.w3.org/Graphics/SVG/1.1/DTD/svg11.dtd">
<svg version="1.1" xmlns="http://www.w3.org/2000/svg" xmlns:xlink="http://www.w3.org/1999/xlink" x="0px" y="0px" width="250px"
	 height="250px" viewBox="0 0 250 250" enable-background="new 0 0 250 250" xml:space="preserve">
<g id="Layer_2">
	<path fill="#FFCD05" d="M243.429,125c0,65.409-53.026,118.428-118.425,118.428c-65.41,0-118.433-53.02-118.433-118.428
		c0-65.406,53.023-118.429,118.433-118.429C190.402,6.571,243.429,59.594,243.429,125z"/>
</g>
<g id="Layer_1">
	<g>
		<g>
			<path fill="none" stroke="#333333" stroke-width="9" stroke-miterlimit="10" d="M92.512,158.896
				c-18.359-1.133-32.895-16.379-32.895-35.02c0-19.387,15.709-35.101,35.097-35.101h61.94c19.382,0,35.088,15.714,35.088,35.101
				c0,18.927-14.973,34.346-33.725,35.063l0.009,0.025c0.095,1.01,0.139,2.047,0.139,3.083c0,18.165-14.73,32.902-32.9,32.902
				c-18.17,0-32.9-14.737-32.9-32.902c0-1.036,0.044-2.073,0.139-3.083L92.512,158.896z"/>
		</g>
		<path fill="none" stroke="#333333" stroke-width="9" stroke-miterlimit="10" d="M125.701,127.19"/>
		<path fill="none" stroke="#333333" stroke-width="9" stroke-miterlimit="10" d="M125.61,127.19"/>
		<path fill="none" stroke="#333333" stroke-width="9" stroke-miterlimit="10" d="M194.194,92.199
			c2.842-0.8,5.839-1.229,8.935-1.231c18.175,0,32.905,14.729,32.905,32.908c0,18.167-14.73,32.904-32.905,32.904"/>
		<path fill="none" stroke="#333333" stroke-width="9" stroke-miterlimit="10" d="M49.01,156.78
			c-18.174,0-32.904-14.737-32.904-32.904c0-18.179,14.73-32.908,32.904-32.908c2.714,0,5.349,0.329,7.872,0.947"/>
		<path fill="none" stroke="#333333" stroke-width="9" stroke-miterlimit="10" d="M102.778,123.876c0,4.844-3.924,8.763-8.771,8.763
			c-4.845,0-8.772-3.919-8.772-8.763c0-4.852,3.928-8.78,8.772-8.78C98.854,115.096,102.778,119.024,102.778,123.876z"/>
		<path fill="none" stroke="#333333" stroke-width="9" stroke-miterlimit="10" d="M166.937,123.876c0,4.844-3.929,8.763-8.771,8.763
			c-4.845,0-8.78-3.919-8.78-8.763c0-4.852,3.936-8.78,8.78-8.78C163.008,115.096,166.937,119.024,166.937,123.876z"/>
		<path fill="none" stroke="#333333" stroke-width="9" stroke-miterlimit="10" d="M136.64,158.964c0,2.85-2.305,5.163-5.153,5.163
			c-2.851,0-5.159-2.313-5.159-5.163c0-2.849,2.309-5.153,5.159-5.153C134.335,153.811,136.64,156.115,136.64,158.964z"/>
		<path fill="none" stroke="#333333" stroke-width="9" stroke-miterlimit="10" d="M124.358,158.964c0,2.85-2.31,5.163-5.163,5.163
			c-2.845,0-5.154-2.313-5.154-5.163c0-2.849,2.31-5.153,5.154-5.153C122.049,153.811,124.358,156.115,124.358,158.964z"/>
		<path fill="none" stroke="#333333" stroke-width="9" stroke-miterlimit="10" d="M100.775,184.012
			c-13.813,12.778-32.29,20.608-52.593,20.608h-0.009v-77.43h0.191C48.363,96.587,66.19,70.148,92.028,57.692l0,0.001
			c12.559-8.647,22.44-20.903,28.146-35.27h10.967v0.004c5.852,14.756,16.118,27.283,29.165,35.961l0.003-0.003
			c25.078,12.726,42.267,38.759,42.267,68.805h0.182v77.43l0,0c-20.521,0-38.809-7.986-52.666-21.022"/>
		<path fill="none" stroke="#333333" stroke-width="9" stroke-miterlimit="10" d="M125.468,88.775"/>
		<path fill="none" stroke="#333333" stroke-width="9" stroke-miterlimit="10" d="M125.468,22.424"/>
		<path fill="none" stroke="#333333" stroke-width="9" stroke-miterlimit="10" d="M125.265,242.436"/>
		<path fill="none" stroke="#333333" stroke-width="9" stroke-miterlimit="10" d="M125.265,194.949"/>
	</g>
</g>
</svg>
