<?xml version="1.0" encoding="utf-8"?>
<!-- Generator: Adobe Illustrator 16.0.3, SVG Export Plug-In . SVG Version: 6.00 Build 0)  -->
<!DOCTYPE svg PUBLIC "-//W3C//DTD SVG 1.1//EN" "http://www.w3.org/Graphics/SVG/1.1/DTD/svg11.dtd">
<svg version="1.1" xmlns="http://www.w3.org/2000/svg" xmlns:xlink="http://www.w3.org/1999/xlink" x="0px" y="0px" width="220px"
	 height="220px" viewBox="0 0 220 220" enable-background="new 0 0 220 220" xml:space="preserve">
<g id="Layer_1" display="none">
	<g display="inline">
		<path fill="#F16571" d="M213.014,111.163c0-56.486-45.791-102.276-102.277-102.276c-56.485,0-102.275,45.79-102.275,102.276
			c0,56.485,45.79,102.275,102.275,102.275C167.223,213.438,213.014,167.648,213.014,111.163"/>
		<path fill="#F16571" d="M213.014,111.163c0-56.486-45.791-102.276-102.277-102.276c-56.485,0-102.275,45.79-102.275,102.276
			c0,56.485,45.79,102.275,102.275,102.275C167.223,213.438,213.014,167.648,213.014,111.163"/>
		<g>
			<defs>
				<path id="SVGID_1_" d="M8.46,111.163c0,56.485,45.792,102.276,102.276,102.276c56.486,0,102.275-45.791,102.275-102.276
					c0-56.486-45.789-102.276-102.275-102.276C54.252,8.887,8.46,54.677,8.46,111.163"/>
			</defs>
			<clipPath id="SVGID_2_">
				<use xlink:href="#SVGID_1_"  overflow="visible"/>
			</clipPath>
			<path clip-path="url(#SVGID_2_)" fill="#BEB3B8" d="M168.99,187.644c-1.008-7.086-2.059-13.567-4.99-20.366
				c-3.223-7.473-9.465-22.073-17.023-25.461c-5.305,3.112-11.773,3.636-17.656,5.401c-5.354,1.606-14.897,2.99-19.407,7.549
				c-4.509-4.559-14.053-5.942-19.407-7.549c-5.883-1.766-12.352-2.289-17.655-5.401c-7.56,3.388-13.802,17.988-17.025,25.461
				c-2.932,6.799-3.982,13.28-4.99,20.366c-0.687,4.83-3.353,12.863,0.772,16.739c3.787,3.558,9.042,11.338,13.809,11.898
				c6.588,0.773,8.882,9.437,15.514,9.799c7.737,0.422,21.115,2.245,28.581,1.633c7.465,0.612,20.027-1.211,27.764-1.633
				c6.633-0.362,15.459-4.125,22.047-4.899c4.767-0.56,8.461-7.058,12.248-10.615C175.697,206.69,169.677,192.474,168.99,187.644"/>
			<path clip-path="url(#SVGID_2_)" fill="#E1DBDD" d="M102.467,87.787c-5.038-10.474-11.678-22.544-20.385-31.061
				c-4.328-4.233-16.385-13.389-22.938-12.207c-6.742,1.214,2.799,16.604,4.899,20.74c4.862,9.574,10.462,18.338,17.68,26.204
				c2.943,3.21,5.742,8.956,10.065,6.096C94.476,95.78,99.35,90.563,102.467,87.787"/>
		</g>
		<g>
			<defs>
				<path id="SVGID_3_" d="M59.143,44.519c-6.742,1.216,2.799,16.604,4.899,20.74c4.862,9.576,10.463,18.338,17.68,26.205
					c2.943,3.209,5.743,8.956,10.066,6.095c2.687-1.778,7.562-6.994,10.679-9.771c-5.038-10.473-11.679-22.544-20.386-31.062
					c-4.069-3.979-14.971-12.311-21.707-12.312C59.945,44.414,59.535,44.448,59.143,44.519"/>
			</defs>
			<clipPath id="SVGID_4_">
				<use xlink:href="#SVGID_3_"  overflow="visible"/>
			</clipPath>
			<path clip-path="url(#SVGID_4_)" fill="#EFBBBB" d="M53.575,51.34C66.59,55.583,77.921,67.725,83.471,79.86
				c2.217,4.847,3.845,9.686,3.934,14.948c0.047,2.739-0.135,5.898-2.045,8.063c-5.072,5.748-10.278-3.684-13.37-7.53
				c-7.021-8.733-11.493-18.775-16.218-28.81C53.87,62.492,50.885,55.766,53.575,51.34"/>
		</g>
		<g>
			<defs>
				<path id="SVGID_5_" d="M8.46,111.163c0,56.485,45.792,102.276,102.276,102.276c56.486,0,102.275-45.791,102.275-102.276
					c0-56.486-45.789-102.276-102.275-102.276C54.252,8.887,8.46,54.677,8.46,111.163"/>
			</defs>
			<clipPath id="SVGID_6_">
				<use xlink:href="#SVGID_5_"  overflow="visible"/>
			</clipPath>
			<path clip-path="url(#SVGID_6_)" fill="#C9C0C4" d="M129.09,153.762c-0.536-3.015-2.346-5.732-4.021-8.224
				c-2.483-3.692-9.083-15.887-14.532-13.242c-0.227,0.11-0.427,0.247-0.625,0.387c-0.197-0.14-0.396-0.276-0.623-0.387
				c-5.449-2.645-12.049,9.55-14.533,13.242c-1.674,2.491-3.484,5.209-4.02,8.224c-0.25,1.407,0.142,2.869-0.578,3.658
				c0.901,3.212,6.277,5.823,9.237,6.497c2.17,0.494,7.343,1.524,10.519,1.524c3.174,0,8.347-1.03,10.517-1.524
				c2.96-0.674,8.335-3.285,9.237-6.497C128.947,156.631,129.34,155.169,129.09,153.762"/>
			<path clip-path="url(#SVGID_6_)" fill="#FFFFFF" d="M104.338,143.657c-0.545,2.788-1.24,5.578-1.774,8.377
				c-0.411,2.155-1.018,4.783-0.075,6.851c0.508,1.116,0.823,1.376,2.043,1.469c0.844,0.065,1.691,0.079,2.531,0.155
				c0.754,0.066,1.631,0.353,2.214-0.224c0.966-0.953,0.878-3.143,0.979-4.387c0.277-3.355,0.16-6.74,0.359-10.1
				c0.082-1.387,0.09-2.695-1.553-3.17C107.682,142.229,105.287,142.306,104.338,143.657"/>
			<path clip-path="url(#SVGID_6_)" fill="#FFFFFF" d="M110.042,143.171c0,1.8,0.259,3.566,0.278,5.357
				c0.017,1.584,0.011,3.112,0.279,4.678c0.198,1.165,0.363,2.331,0.556,3.496c0.106,0.646,0.153,1.64,0.61,2.14
				c0.785,0.859,2.84,0.526,3.808,0.251c0.909-0.257,1.558-0.565,1.772-1.446c0.273-1.131,0.045-2.289-0.064-3.418
				c-0.15-1.531-0.396-3.068-0.704-4.57c-0.306-1.5-0.593-3.016-1.06-4.479c-0.211-0.668-0.471-1.549-1.039-2.014
				C113.564,142.419,111.303,142.33,110.042,143.171"/>
			<path clip-path="url(#SVGID_6_)" fill="#E1DBDD" d="M117.359,87.787c5.039-10.474,11.678-22.544,20.385-31.061
				c4.328-4.233,16.386-13.389,22.938-12.207c6.742,1.214-2.799,16.604-4.899,20.74c-4.861,9.574-10.461,18.338-17.68,26.204
				c-2.943,3.21-5.742,8.956-10.064,6.096C125.351,95.78,120.477,90.563,117.359,87.787"/>
		</g>
		<g>
			<defs>
				<path id="SVGID_7_" d="M137.745,56.726c-8.707,8.518-15.349,20.589-20.386,31.062c3.117,2.777,7.992,7.993,10.679,9.771
					c4.324,2.861,7.123-2.886,10.065-6.095c7.218-7.867,12.817-16.629,17.681-26.205c2.101-4.136,11.642-19.524,4.899-20.74
					c-0.393-0.07-0.804-0.104-1.231-0.104C152.717,44.415,141.814,52.747,137.745,56.726"/>
			</defs>
			<clipPath id="SVGID_8_">
				<use xlink:href="#SVGID_7_"  overflow="visible"/>
			</clipPath>
			<path clip-path="url(#SVGID_8_)" fill="#EFBBBB" d="M166.251,51.34c-13.015,4.243-24.347,16.385-29.896,28.521
				c-2.217,4.847-3.846,9.686-3.935,14.948c-0.047,2.739,0.136,5.898,2.045,8.063c5.072,5.748,10.278-3.684,13.37-7.53
				c7.021-8.733,11.493-18.775,16.219-28.81C165.956,62.492,168.941,55.766,166.251,51.34"/>
		</g>
		<g>
			<defs>
				<path id="SVGID_9_" d="M8.46,111.163c0,56.485,45.792,102.276,102.276,102.276c56.486,0,102.275-45.791,102.275-102.276
					c0-56.486-45.789-102.276-102.275-102.276C54.252,8.887,8.46,54.677,8.46,111.163"/>
			</defs>
			<clipPath id="SVGID_10_">
				<use xlink:href="#SVGID_9_"  overflow="visible"/>
			</clipPath>
			<path clip-path="url(#SVGID_10_)" fill="#DAD3D5" d="M151.1,132.132c-2.207-6.462-7.596-10.709-11.815-16.077
				c-4.565-5.805-2.815-14.016-6.317-20.374c-2.42-4.395-5.729-8.933-10.381-10.962c-3.518-1.536-7.158-2.065-10.91-2.231
				c-0.004-0.022-0.008-0.049-0.013-0.07c-0.586,0-1.169,0.005-1.75,0.015c-0.581-0.01-1.163-0.015-1.75-0.015
				c-0.005,0.021-0.008,0.048-0.013,0.07c-3.751,0.166-7.392,0.695-10.911,2.231c-4.651,2.029-7.96,6.567-10.38,10.962
				c-3.501,6.358-1.312,14.762-5.877,20.568c-4.221,5.368-9.416,8.84-11.622,15.302c-1.975,5.788-2.27,13.414,1.356,18.401
				c4.122,5.67,10.288,9.169,16.885,9.886c11.16,1.213,19.145-6.341,22.312-15.983c3.167,9.643,11.152,17.196,22.312,15.983
				c6.598-0.717,12.428-4.604,16.551-10.274C152.4,144.578,153.074,137.92,151.1,132.132"/>
			<path clip-path="url(#SVGID_10_)" fill="#231F20" d="M98.55,114.137c0-2.765-2.241-5.006-5.006-5.006
				c-2.765,0-5.007,2.241-5.007,5.006s2.242,5.006,5.007,5.006C96.309,119.143,98.55,116.901,98.55,114.137"/>
			<path clip-path="url(#SVGID_10_)" fill="#FFFFFF" d="M95.118,114.137c0-0.869-0.705-1.574-1.574-1.574
				c-0.87,0-1.575,0.705-1.575,1.574s0.705,1.574,1.575,1.574C94.413,115.711,95.118,115.006,95.118,114.137"/>
			<path clip-path="url(#SVGID_10_)" fill="#231F20" d="M120.627,114.137c0-2.765,2.24-5.006,5.006-5.006s5.007,2.241,5.007,5.006
				s-2.241,5.006-5.007,5.006S120.627,116.901,120.627,114.137"/>
			<path clip-path="url(#SVGID_10_)" fill="#FFFFFF" d="M124.059,114.137c0-0.869,0.705-1.574,1.574-1.574
				c0.87,0,1.575,0.705,1.575,1.574s-0.705,1.574-1.575,1.574C124.764,115.711,124.059,115.006,124.059,114.137"/>
			<path clip-path="url(#SVGID_10_)" fill="#E38383" d="M110.024,139.063c-0.027-1.551-1.751-2.764-2.888-3.526
				c-0.762-0.509-1.621-0.81-2.347-1.378c-0.419-0.329-1.409-1.274-1.146-1.867c0.41-0.917,3.049-0.638,3.804-0.638
				c1.631,0,3.296-0.095,4.91-0.032c0.964,0.037,4.864-0.406,4.106,1.539c-0.658,1.692-3.301,2.319-4.627,3.316
				c-0.574,0.431-1.125,0.927-1.42,1.588C110.234,138.476,110.272,139.107,110.024,139.063"/>
			<g opacity="0.2" clip-path="url(#SVGID_10_)">
				<g>
					<defs>
						<rect id="SVGID_11_" x="49.354" y="44.415" width="62.607" height="183.423"/>
					</defs>
					<clipPath id="SVGID_12_">
						<use xlink:href="#SVGID_11_"  overflow="visible"/>
					</clipPath>
					<path clip-path="url(#SVGID_12_)" fill="#FFFFFF" d="M111.961,82.505c-0.096-0.005-0.189-0.014-0.285-0.018
						c-0.004-0.023-0.008-0.048-0.013-0.071c-0.586,0-1.169,0.006-1.75,0.017c-0.581-0.011-1.164-0.017-1.75-0.017
						c-0.005,0.023-0.008,0.048-0.013,0.071c-2.639,0.116-5.219,0.422-7.744,1.122c-4.75-9.391-10.756-19.479-18.325-26.883
						c-4.328-4.233-16.384-13.389-22.938-12.207c-3.205,0.577-2.728,4.358-1.122,8.611c0.658,2.184,5.646,11.233,7.548,15.273
						c4.725,10.034,16.306,23.655,20.67,28.555c-2.067,5.053-1.455,14.622-5.257,19.29c-4.313,5.293-9.416,8.839-11.622,15.302
						c-1.402,4.107-1.948,9.137-0.857,13.495c-5.578,5.708-10.097,16.248-12.677,22.231c-2.932,6.799-3.982,13.281-4.99,20.367
						c-0.687,4.83-3.354,12.863,0.772,16.738c3.787,3.558,9.042,11.339,13.808,11.898c6.588,0.774,8.882,9.438,15.515,9.799
						c7.737,0.422,21.114,2.244,28.581,1.633c0.762,0.063,1.59,0.095,2.449,0.11V82.505z"/>
				</g>
			</g>
		</g>
	</g>
</g>
<g id="Layer_4" display="none">
	<path display="inline" fill="#BCD649" d="M212.275,110C212.275,53.513,166.484,7.723,110,7.723
		C53.514,7.723,7.724,53.513,7.724,110c0,56.485,45.79,102.276,102.276,102.276C166.484,212.275,212.275,166.484,212.275,110"/>
	<g display="inline">
		<defs>
			<path id="SVGID_13_" d="M7.724,110c0,56.485,45.79,102.276,102.276,102.276c56.485,0,102.276-45.791,102.276-102.276
				C212.276,53.513,166.485,7.723,110,7.723C53.514,7.723,7.724,53.513,7.724,110"/>
		</defs>
		<clipPath id="SVGID_14_">
			<use xlink:href="#SVGID_13_"  overflow="visible"/>
		</clipPath>
		<path clip-path="url(#SVGID_14_)" fill="#BE4129" d="M77.671,136.93c-0.93,2.391,0.873,6.848,0.092,10.021
			c-0.934,3.795-2.731,7.898-4.362,11.414c-3.366,7.25-8.238,13.707-11.421,21.051c-2.925,6.748-4.527,13.975-4.519,21.293
			c0.004,3.779-0.591,8.176,0.239,11.871c1.182,5.262,7.3,7.967,11.948,9.883c14.943,6.162,31.054,13.107,46.88,5.967
			c-0.841-2.328,0.506-5.168,0.675-7.652c0.423-6.215,0.312-12.717,0.276-18.928c-0.072-12.521,0.558-25.811,0-38.277
			c-0.324-7.227-2.036-14.381-8.715-18.977c-4.695-3.229-9.547-3.867-14.723-5.725C90.117,137.463,85.977,135.645,77.671,136.93"/>
		<path clip-path="url(#SVGID_14_)" fill="#BE4129" d="M142.328,136.916c0.93,2.389-0.873,6.848-0.092,10.021
			c0.934,3.795,2.731,7.898,4.363,11.412c3.365,7.252,8.237,13.709,11.421,21.053c2.924,6.746,4.526,13.973,4.518,21.293
			c-0.004,3.777,0.591,8.176-0.239,11.871c-1.182,5.262-7.3,7.967-11.947,9.883c-14.944,6.162-31.055,13.107-46.881,5.967
			c0.842-2.33-0.506-5.168-0.675-7.654c-0.423-6.215-0.312-12.717-0.275-18.928c0.071-12.52-0.559-25.811,0-38.277
			c0.323-7.225,2.035-14.381,8.714-18.975c4.696-3.23,9.547-3.869,14.723-5.725C129.882,137.449,134.023,135.629,142.328,136.916"/>
		<path clip-path="url(#SVGID_14_)" fill="#E9D8C9" d="M138.638,212.844c-0.606-11.119-1.043-22.77-5.952-33.031
			c-3.816-7.979-11.181-17.662-21.116-17.77c-0.463-0.166-0.953-0.229-1.467-0.182c-0.629-0.094-1.221-0.02-1.774,0.199
			c-9.885,0.172-17.211,9.816-21.014,17.766c-4.91,10.264-5.347,21.912-5.953,33.031c-0.474,8.658-2.857,26.271,6.275,31.416
			c4.841,2.725,12.365,3.373,17.745,2.605c1.764-0.252,3.291-0.676,4.633-1.252c1.336,0.57,2.854,0.988,4.604,1.238
			c5.379,0.766,12.905,0.119,17.744-2.607C141.495,239.115,139.111,221.5,138.638,212.844"/>
		<path clip-path="url(#SVGID_14_)" fill="#702F1F" d="M56.862,33.532c0,0,9.681,0.164,21,8.581
			c11.318,8.416,16.762,16.898,18.068,19.655c1.306,2.757,2.03,5.515,2.03,5.515s-13.495,2.177-19.59,6.095
			S65.165,86.583,65.165,86.583s-4.53-5.476-8.303-17.374C53.089,57.309,53.524,38.465,56.862,33.532"/>
		<path clip-path="url(#SVGID_14_)" fill="#E9D8C9" d="M75.83,47.532c-9.578-9.578-16.081-11.193-17.387-10.613
			c-1.307,0.58-0.468,13.938,1.129,20.323c1.596,6.385,4.142,13.089,6.754,18.313c1.353,2.704,2.49,4.512,3.343,5.69
			c2.514-2.767,5.729-5.955,8.702-7.867c2.937-1.888,7.59-3.37,11.626-4.401C87.284,63.845,82.982,54.683,75.83,47.532"/>
		<path clip-path="url(#SVGID_14_)" fill="#E9D8C9" d="M61.077,90.195c0,0,3.764,4.652-2.069,13.225
			c-11.065,16.258-33.847,11.045-33.847,11.045l17.196,6.748c0,0-1.522,2.178-7.183,5.334c-4.873,2.717-6.53,3.156-6.53,3.156
			s7.618,2.176,12.19,2.176c4.57,0,7.836-0.217,7.836-0.217s-4.137,4.135-5.442,6.529s-1.741,3.918-1.741,3.918
			s22.855-5.877,42.229,3.266s22.638,20.025,23.291,22.639c0.652,2.611,1.74,0.217,1.74,0.217s0.871-35.916-5.006-52.242
			c-5.877-16.324-14.148-35.479-21.113-36.132C75.661,79.204,61.077,90.195,61.077,90.195"/>
		<path clip-path="url(#SVGID_14_)" fill="#231F20" d="M86.544,117.193c0-3.266-2.646-5.912-5.912-5.912
			c-3.265,0-5.912,2.646-5.912,5.912s2.647,5.912,5.912,5.912C83.897,123.105,86.544,120.459,86.544,117.193"/>
		<path clip-path="url(#SVGID_14_)" fill="#FFFFFF" d="M82.491,117.193c0-1.027-0.832-1.859-1.858-1.859
			c-1.027,0-1.859,0.832-1.859,1.859s0.832,1.859,1.859,1.859C81.659,119.053,82.491,118.221,82.491,117.193"/>
		<path clip-path="url(#SVGID_14_)" fill="#231F20" d="M116.294,169.863c0,4.027-2.826,7.291-6.313,7.291s-6.313-3.264-6.313-7.291
			s2.826-7.293,6.313-7.293S116.294,165.836,116.294,169.863"/>
		<path clip-path="url(#SVGID_14_)" fill="#702F1F" d="M163.137,33.517c0,0-9.681,0.164-21,8.581
			c-11.318,8.416-16.762,16.898-18.067,19.656c-1.307,2.757-2.031,5.514-2.031,5.514s13.495,2.177,19.59,6.095
			c6.096,3.918,13.206,13.206,13.206,13.206s4.53-5.475,8.303-17.374C166.91,57.295,166.476,38.451,163.137,33.517"/>
		<path clip-path="url(#SVGID_14_)" fill="#E9D8C9" d="M144.169,47.517c9.578-9.578,16.081-11.193,17.388-10.613
			c1.306,0.58,0.467,13.938-1.13,20.323c-1.596,6.385-4.142,13.089-6.754,18.313c-1.353,2.703-2.489,4.511-3.343,5.689
			c-2.514-2.766-5.728-5.955-8.702-7.867c-2.937-1.888-7.59-3.37-11.626-4.4C132.715,63.832,137.018,54.669,144.169,47.517"/>
		<path clip-path="url(#SVGID_14_)" fill="#E9D8C9" d="M158.922,90.181c0,0-3.763,4.651,2.069,13.224
			c11.065,16.257,33.847,11.046,33.847,11.046l-17.196,6.748c0,0,1.524,2.176,7.184,5.332c4.872,2.719,6.529,3.156,6.529,3.156
			s-7.618,2.178-12.188,2.178c-4.572,0-7.837-0.217-7.837-0.217s4.136,4.135,5.441,6.529c1.307,2.395,1.742,3.918,1.742,3.918
			s-22.855-5.877-42.229,3.266s-22.639,20.025-23.291,22.637c-0.653,2.613-1.741,0.219-1.741,0.219s-0.871-35.916,5.006-52.242
			c5.877-16.325,14.149-35.48,21.114-36.132C144.338,79.189,158.922,90.181,158.922,90.181"/>
		<path clip-path="url(#SVGID_14_)" fill="#231F20" d="M133.455,117.18c0-3.266,2.647-5.912,5.912-5.912s5.912,2.646,5.912,5.912
			c0,3.264-2.647,5.912-5.912,5.912S133.455,120.443,133.455,117.18"/>
		<path clip-path="url(#SVGID_14_)" fill="#FFFFFF" d="M137.508,117.18c0-1.027,0.832-1.859,1.859-1.859
			c1.026,0,1.858,0.832,1.858,1.859s-0.832,1.857-1.858,1.857C138.34,119.037,137.508,118.207,137.508,117.18"/>
		<path clip-path="url(#SVGID_14_)" fill="#BE4129" d="M147.67,72.695c-14.259-12.79-61.143-12.721-75.34,0.014
			c-15.131,13.573-19.87,37.485-19.87,37.485s13.348-11.038,24.611-9.484c13.098,1.807,19.559,6.305,23.259,23.935
			c3.7,17.633,6.458,45.545,6.458,45.545h3.049h0.993v-0.014h2.38c0,0,2.759-27.914,6.46-45.545
			c3.699-17.632,10.16-22.129,23.258-23.936c11.264-1.553,24.612,9.484,24.612,9.484S162.801,86.268,147.67,72.695"/>
		<path clip-path="url(#SVGID_14_)" fill="#231F20" d="M103.706,169.85c0,4.025,2.825,7.291,6.312,7.291
			c3.487,0,6.313-3.266,6.313-7.291c0-4.027-2.826-7.293-6.313-7.293C106.531,162.557,103.706,165.822,103.706,169.85"/>
		<g opacity="0.2" clip-path="url(#SVGID_14_)">
			<g>
				<defs>
					<rect id="SVGID_15_" x="25.162" y="33.532" width="84.004" height="213.646"/>
				</defs>
				<clipPath id="SVGID_16_">
					<use xlink:href="#SVGID_15_"  overflow="visible"/>
				</clipPath>
				<path clip-path="url(#SVGID_16_)" fill="#FFFFFF" d="M109.166,63.152c-4.168,0.033-8.325,0.296-12.308,0.805
					c-0.266-0.694-0.573-1.439-0.929-2.188c-1.306-2.757-6.749-11.239-18.067-19.655c-11.318-8.417-21-8.581-21-8.581
					c-3.338,4.934-3.773,23.777,0,35.678c2.217,6.99,4.688,11.747,6.354,14.496c-7.43,11.712-10.336,24.502-10.712,26.269
					c-11.662,8.067-27.343,4.491-27.343,4.491l17.195,6.748c0,0-1.523,2.178-7.183,5.334c-4.873,2.717-6.53,3.156-6.53,3.156
					s7.618,2.176,12.189,2.176s7.836-0.217,7.836-0.217s-4.135,4.135-5.441,6.531c-1.307,2.393-1.741,3.918-1.741,3.918
					s18.521-4.758,36.35,0.961c0.148,1.355,0.215,2.705-0.074,3.879c-0.934,3.795-2.73,7.898-4.363,11.414
					c-3.365,7.252-8.237,13.707-11.421,21.051c-2.924,6.748-4.526,13.973-4.518,21.293c0.004,3.779-0.591,8.176,0.239,11.871
					c1.182,5.262,7.301,7.967,11.947,9.883c3.64,1.5,7.348,3.047,11.104,4.424c0.165,7.203,1.581,14.398,6.886,17.385
					c4.84,2.727,12.366,3.373,17.745,2.607c1.404-0.199,2.653-0.514,3.784-0.924V63.152z"/>
			</g>
		</g>
	</g>
</g>
<g id="Layer_2" display="none">
	<path display="inline" fill="#5BCAF4" d="M212.276,110C212.276,53.514,166.485,7.724,110,7.724S7.724,53.514,7.724,110
		c0,56.485,45.791,102.275,102.276,102.275S212.276,166.485,212.276,110"/>
	<g display="inline">
		<defs>
			<path id="SVGID_17_" d="M7.724,110c0,56.485,45.791,102.276,102.276,102.276S212.276,166.485,212.276,110
				C212.276,53.514,166.485,7.724,110,7.724S7.724,53.514,7.724,110"/>
		</defs>
		<clipPath id="SVGID_18_">
			<use xlink:href="#SVGID_17_"  overflow="visible"/>
		</clipPath>
		<path clip-path="url(#SVGID_18_)" fill="#B85F28" d="M132.093,59.048c0,10.578,8.381,19.154,18.72,19.154
			c10.338,0,18.72-8.576,18.72-19.154c0-10.579-8.382-19.155-18.72-19.155C140.474,39.893,132.093,48.469,132.093,59.048"/>
		<path clip-path="url(#SVGID_18_)" fill="#FFFFFF" d="M137.852,62.092c0,6.013,4.763,10.887,10.64,10.887
			c5.876,0,10.639-4.874,10.639-10.887c0-6.014-4.763-10.888-10.639-10.888C142.614,51.204,137.852,56.078,137.852,62.092"/>
		<path clip-path="url(#SVGID_18_)" fill="#B85F28" d="M85.622,59.048c0,10.578-8.381,19.154-18.72,19.154
			s-18.72-8.576-18.72-19.154c0-10.579,8.381-19.155,18.72-19.155S85.622,48.469,85.622,59.048"/>
		<path clip-path="url(#SVGID_18_)" fill="#FFFFFF" d="M79.864,62.092c0,6.013-4.764,10.887-10.641,10.887
			c-5.876,0-10.639-4.874-10.639-10.887c0-6.014,4.763-10.888,10.639-10.888C75.101,51.204,79.864,56.078,79.864,62.092"/>
		<path clip-path="url(#SVGID_18_)" fill="#FBAB47" d="M162.835,193.398c-0.456-9.741-1.157-15.939-2.45-25.641
			c-1.194-8.963-6.386-20.443-11.024-27.765c-3.177-5.678-11.886-5.772-19.28-6.439c-5.234-0.474-13.039,0.713-17.084,4.288
			c-1.81,1.6-3.188,3.37-4.139,5.306c-0.95-1.936-2.33-3.706-4.139-5.306c-4.044-3.575-11.849-4.762-17.084-4.288
			c-7.394,0.667-16.103,0.762-19.281,6.439c-4.637,7.321-9.829,18.802-11.022,27.765c-1.293,9.701-1.994,15.899-2.451,25.641
			c-0.276,5.905-0.317,12.253,0.408,18.055c0.525,4.194,0.633,4.333,5.289,4.906c5.631,0.692,11.691,0.813,17.373,0.8
			c9.182-0.02,21.225,1.105,30.907,0.91c9.684,0.195,21.726-0.93,30.907-0.91c5.681,0.014,11.742-0.107,17.373-0.8
			c4.656-0.573,4.764-0.712,5.289-4.906C163.152,205.651,163.11,199.304,162.835,193.398"/>
		<path clip-path="url(#SVGID_18_)" fill="#FDC57E" d="M79.577,189.805c0-16.63,16.586-35.381,25.622-42.127
			c0.731-0.546,1.403-0.836,2.563-0.836s1.834,0.29,2.564,0.836c9.036,6.746,25.622,25.497,25.622,42.127
			c0,3.911,0.231,9.01-4.454,10.247c-4.898,1.295-8.403-4.04-11.48-6.748c-0.656,4.756,0.502,9.164-2.566,13.384
			c-2.104,2.893-6.006,5.221-9.565,5.105c-0.001,0.002-0.001,0.004-0.001,0.006c-0.04,0.002-0.08-0.005-0.119-0.003
			c-0.039-0.002-0.078,0.005-0.119,0.003c0-0.002,0-0.004,0-0.006c-3.56,0.115-7.461-2.213-9.565-5.105
			c-3.069-4.22-1.91-8.628-2.567-13.384c-3.076,2.708-6.582,8.043-11.479,6.748C79.345,198.814,79.577,193.716,79.577,189.805"/>
		<path clip-path="url(#SVGID_18_)" fill="#FBAB47" d="M108.294,47.438c0,0,11.029-1.161,24.67,4.063
			c13.64,5.225,20.316,14.803,24.959,23.51c4.644,8.706,6.095,21.477,6.095,21.477s14.803,5.804,20.316,10.158l5.515,4.353
			l-16.253,4.645c0,0,6.965,8.417,8.997,11.028c2.031,2.612,2.902,4.644,2.902,4.644h-13.642c0,0,6.096,9.578,7.256,14.512
			c1.161,4.934,0.871,8.997,0.871,8.997s-13.061-5.224-29.604-4.353c-16.543,0.869-26.991,11.608-33.376,14.221
			s-8.707,2.031-8.707,2.031V47.438z"/>
		<path clip-path="url(#SVGID_18_)" fill="#FBAB47" d="M109.421,47.438c0,0-11.029-1.161-24.67,4.063
			c-13.64,5.225-20.316,14.803-24.959,23.51c-4.645,8.706-6.095,21.477-6.095,21.477s-14.802,5.804-20.315,10.158l-5.516,4.353
			l16.253,4.645c0,0-6.965,8.417-8.997,11.028c-2.031,2.612-2.902,4.644-2.902,4.644h13.642c0,0-6.095,9.578-7.257,14.512
			c-1.16,4.934-0.87,8.997-0.87,8.997s13.061-5.224,29.604-4.353c16.543,0.869,26.99,11.608,33.375,14.221s8.707,2.031,8.707,2.031
			V47.438z"/>
		<path clip-path="url(#SVGID_18_)" fill="#FFFFFF" d="M179.11,145.826c-0.941-3.997-5.118-11.04-6.672-13.571
			c-13.468-15.4-41.995-17.691-63.58-16.804c-21.586-0.888-50.113,1.403-63.582,16.804c-1.553,2.531-5.73,9.574-6.672,13.571
			c-1.16,4.934-0.869,8.997-0.869,8.997s13.06-5.224,29.603-4.354s26.991,11.609,33.376,14.222c4.641,1.897,7.127,2.108,8.145,2.083
			c1.016,0.025,3.503-0.186,8.143-2.083c6.385-2.612,16.833-13.352,33.376-14.222s29.604,4.354,29.604,4.354
			S180.271,150.76,179.11,145.826"/>
		<path clip-path="url(#SVGID_18_)" fill="#010101" d="M149.154,99.272c0.059-2.507,3.983-6.434,5.388-8.508
			c1.726-2.545,3.749-5.024,5.645-7.391c0.222-0.278,0.478-0.65,0.76-0.983c1.288,4.036,2.101,8.007,2.564,10.702
			c-2.294,1.372-5.461,2.32-7.049,3.098C154.087,97.354,151.572,98.287,149.154,99.272"/>
		<path clip-path="url(#SVGID_18_)" fill="#010101" d="M147.017,85.911c0.255-1.724,8.035-9.459,10.769-11.153
			c0.046,0.084,0.094,0.169,0.139,0.253c0.898,1.686,1.678,3.525,2.35,5.395c-1.869,1.106-4.325,1.879-5.978,2.683
			C152.184,84.114,149.354,85.817,147.017,85.911"/>
		<path clip-path="url(#SVGID_18_)" fill="#010101" d="M116.995,74.458c-1.596-6.461-2.415-13.248-3.308-19.868
			c-0.305-2.255-0.518-4.821-0.908-7.231c2.691,0.085,6.438,0.413,10.83,1.363c-0.441,4.817-1.768,9.521-2.981,14.206
			C119.637,66.753,118.793,70.941,116.995,74.458"/>
		<path clip-path="url(#SVGID_18_)" fill="#231F20" d="M122.794,105.283c0-2.952,2.393-5.345,5.345-5.345
			c2.951,0,5.344,2.393,5.344,5.345s-2.393,5.345-5.344,5.345C125.187,110.628,122.794,108.235,122.794,105.283"/>
		<path clip-path="url(#SVGID_18_)" fill="#FFFFFF" d="M126.458,105.283c0-0.928,0.752-1.681,1.681-1.681
			c0.928,0,1.68,0.753,1.68,1.681s-0.752,1.681-1.68,1.681C127.21,106.964,126.458,106.211,126.458,105.283"/>
		<path clip-path="url(#SVGID_18_)" fill="#231F20" d="M109.145,125.958c1.718,0,7.483-0.701,8.39,1.069
			c0.991,1.936-3.31,5.7-4.531,6.624c-1.306,0.987-2.26,1.262-3.717,1.899C108.342,132.92,109.74,129.096,109.145,125.958"/>
		<path clip-path="url(#SVGID_18_)" fill="#231F20" d="M108.918,134.787c-0.551,6.063,1.59,12.695,7.506,15.375
			c5.497,2.49,13.748,1.306,18.477-2.313c0.626-0.479-0.167-1.412-0.793-0.934c-4.236,3.242-11.567,4.263-16.591,2.376
			c-5.802-2.18-7.876-8.592-7.394-14.284C110.188,134.23,108.989,134,108.918,134.787"/>
		
			<path clip-path="url(#SVGID_18_)" fill="none" stroke="#B85F28" stroke-width="1.225" stroke-linecap="round" stroke-linejoin="round" stroke-miterlimit="10" d="
			M124.471,126.685c17.728-1.682,35.882,1.377,52.078,8.776"/>
		
			<path clip-path="url(#SVGID_18_)" fill="none" stroke="#B85F28" stroke-width="1.225" stroke-linecap="round" stroke-linejoin="round" stroke-miterlimit="10" d="
			M124.42,132.507c21.784,2.89,42.96,10.277,61.813,21.565"/>
		
			<path clip-path="url(#SVGID_18_)" fill="none" stroke="#B85F28" stroke-width="1.225" stroke-linecap="round" stroke-linejoin="round" stroke-miterlimit="10" d="
			M123.507,137.474c24.188,9.438,45.925,25.08,62.56,45.016"/>
		<path clip-path="url(#SVGID_18_)" fill="#010101" d="M68.561,99.272c-0.059-2.507-3.983-6.434-5.388-8.508
			c-1.725-2.545-3.749-5.024-5.645-7.391c-0.222-0.278-0.478-0.65-0.76-0.983c-1.287,4.036-2.101,8.007-2.564,10.702
			c2.293,1.372,5.461,2.32,7.049,3.098C63.628,97.354,66.143,98.287,68.561,99.272"/>
		<path clip-path="url(#SVGID_18_)" fill="#010101" d="M70.698,85.911c-0.255-1.724-8.035-9.459-10.769-11.153
			c-0.046,0.084-0.093,0.169-0.138,0.253c-0.899,1.686-1.679,3.525-2.351,5.395c1.869,1.106,4.325,1.879,5.978,2.683
			C65.531,84.114,68.361,85.817,70.698,85.911"/>
		<path clip-path="url(#SVGID_18_)" fill="#010101" d="M100.72,74.458c1.596-6.461,2.415-13.248,3.309-19.868
			c0.304-2.255,0.517-4.821,0.908-7.231c-2.693,0.085-6.438,0.413-10.83,1.363c0.44,4.817,1.767,9.521,2.98,14.206
			C98.077,66.753,98.922,70.941,100.72,74.458"/>
		<path clip-path="url(#SVGID_18_)" fill="#231F20" d="M95.927,105.283c0-2.952-2.393-5.345-5.346-5.345
			c-2.95,0-5.344,2.393-5.344,5.345s2.394,5.345,5.344,5.345C93.534,110.628,95.927,108.235,95.927,105.283"/>
		<path clip-path="url(#SVGID_18_)" fill="#FFFFFF" d="M92.263,105.283c0-0.928-0.753-1.681-1.681-1.681
			c-0.929,0-1.681,0.753-1.681,1.681s0.752,1.681,1.681,1.681C91.51,106.964,92.263,106.211,92.263,105.283"/>
		<path clip-path="url(#SVGID_18_)" fill="#231F20" d="M110.076,125.907c-1.718,0-8.988-0.65-9.896,1.12
			c-0.992,1.936,3.309,5.7,4.532,6.624c1.306,0.987,2.987,1.647,4.444,2.285C110.103,133.306,109.479,129.045,110.076,125.907"/>
		<path clip-path="url(#SVGID_18_)" fill="#231F20" d="M107.585,134.951c0.518,5.729-1.598,12.19-7.438,14.362
			c-5.038,1.873-12.354,0.807-16.585-2.433c-0.627-0.479-1.327,0.525-0.702,1.003c4.712,3.607,13.02,4.779,18.48,2.257
			c5.871-2.713,7.978-9.252,7.464-15.297C108.737,134.06,107.514,134.165,107.585,134.951"/>
		
			<path clip-path="url(#SVGID_18_)" fill="none" stroke="#B85F28" stroke-width="1.225" stroke-linecap="round" stroke-linejoin="round" stroke-miterlimit="10" d="
			M93.243,126.685c-17.727-1.682-35.881,1.377-52.077,8.776"/>
		
			<path clip-path="url(#SVGID_18_)" fill="none" stroke="#B85F28" stroke-width="1.225" stroke-linecap="round" stroke-linejoin="round" stroke-miterlimit="10" d="
			M93.296,132.507c-21.785,2.89-42.961,10.277-61.814,21.565"/>
		
			<path clip-path="url(#SVGID_18_)" fill="none" stroke="#B85F28" stroke-width="1.225" stroke-linecap="round" stroke-linejoin="round" stroke-miterlimit="10" d="
			M94.208,137.474c-24.188,9.438-45.925,25.08-62.559,45.016"/>
		<g opacity="0.2" clip-path="url(#SVGID_18_)">
			<g>
				<defs>
					<rect id="SVGID_19_" x="27.866" y="39.892" width="80.5" height="178.194"/>
				</defs>
				<clipPath id="SVGID_20_">
					<use xlink:href="#SVGID_19_"  overflow="visible"/>
				</clipPath>
				<path clip-path="url(#SVGID_20_)" fill="#FFFFFF" d="M108.366,47.369c-1.054-0.047-2.865-0.075-5.245,0.079
					c-0.176,0.012-0.349,0.023-0.53,0.036c-0.278,0.021-0.563,0.045-0.854,0.071c-0.206,0.019-0.417,0.04-0.63,0.061
					c-0.303,0.03-0.604,0.061-0.919,0.096c-0.204,0.024-0.421,0.055-0.63,0.08c-0.572,0.072-1.162,0.155-1.772,0.25
					c-0.245,0.038-0.489,0.076-0.739,0.118c-0.347,0.059-0.697,0.12-1.054,0.187c-0.265,0.049-0.535,0.103-0.806,0.155
					c-3.172,0.628-6.698,1.568-10.436,2.999c-0.188,0.073-0.363,0.155-0.55,0.229c-2.81-6.947-9.494-11.838-17.299-11.838
					c-10.339,0-18.72,8.576-18.72,19.154c0,7.719,4.471,14.353,10.897,17.387c-0.188,0.395-0.37,0.795-0.546,1.2
					c-0.003,0.006-0.005,0.012-0.007,0.017c-0.39,0.9-0.75,1.823-1.085,2.753l-0.001,0.002c-0.238,0.66-0.461,1.323-0.673,1.985
					v0.002c-0.805,2.521-1.424,5.015-1.889,7.19c0,0.002,0,0.004,0,0.005c-0.092,0.429-0.177,0.843-0.257,1.243
					c-0.003,0.017-0.006,0.032-0.01,0.048c-0.653,3.309-0.916,5.608-0.916,5.608s-14.802,5.804-20.315,10.158l-5.516,4.353
					l16.253,4.645c0,0-6.965,8.417-8.997,11.028c-2.031,2.612-2.902,4.644-2.902,4.644h13.642c0,0-0.24,0.377-0.625,1.006
					c-0.095,0.154-0.196,0.32-0.308,0.504c-0.047,0.078-0.098,0.164-0.148,0.247c-0.045,0.075-0.088,0.147-0.135,0.226
					c-1.254,0.514-2.5,1.044-3.734,1.606c-0.307,0.141-0.441,0.504-0.302,0.811c0.103,0.227,0.325,0.359,0.557,0.359
					c0.085,0,0.173-0.018,0.255-0.056c0.725-0.331,1.455-0.643,2.187-0.955c-0.067,0.115-0.136,0.233-0.203,0.353
					c-0.048,0.085-0.095,0.164-0.144,0.249c-0.184,0.325-0.373,0.66-0.563,1.003c-0.045,0.082-0.09,0.166-0.135,0.248
					c-0.147,0.267-0.294,0.535-0.442,0.809c-0.066,0.124-0.132,0.249-0.199,0.374c-0.129,0.241-0.257,0.483-0.384,0.729
					c-0.069,0.134-0.138,0.267-0.207,0.399c-0.136,0.266-0.269,0.532-0.401,0.799c-0.053,0.105-0.106,0.212-0.158,0.318
					c-0.182,0.371-0.36,0.741-0.53,1.109c-0.024,0.053-0.046,0.104-0.069,0.157c-0.143,0.31-0.279,0.618-0.41,0.921
					c-0.049,0.116-0.096,0.229-0.143,0.342c-0.102,0.242-0.195,0.479-0.287,0.712c-0.047,0.122-0.093,0.242-0.137,0.36
					c-0.085,0.232-0.163,0.456-0.237,0.678c-0.032,0.102-0.069,0.205-0.101,0.306c-0.098,0.312-0.184,0.614-0.251,0.898
					c-0.146,0.617-0.269,1.22-0.371,1.803c-0.13,0.736-0.228,1.437-0.302,2.097c-2.289,1.222-4.547,2.493-6.764,3.821
					c-0.291,0.175-0.387,0.551-0.212,0.841c0.115,0.191,0.317,0.298,0.525,0.298c0.108,0,0.217-0.028,0.315-0.087
					c1.969-1.18,3.971-2.307,5.996-3.401c-0.009,0.112-0.019,0.229-0.025,0.337c-0.014,0.224-0.025,0.437-0.034,0.642
					c-0.019,0.407-0.027,0.776-0.03,1.102c-0.002,0.162-0.002,0.314-0.002,0.453c0.004,0.696,0.032,1.093,0.032,1.093
					s2.5-1,6.698-2.052c0.299-0.075,0.607-0.151,0.925-0.227c0.634-0.15,1.301-0.301,1.999-0.447
					c2.443-0.517,5.27-0.993,8.377-1.315c0.888-0.091,1.798-0.171,2.73-0.234c1.396-0.095,2.84-0.155,4.321-0.172
					c0.007,0,0.015,0,0.021,0c-0.637,1.404-1.246,2.838-1.815,4.285c-11.058,7.793-21.11,17.009-29.812,27.437
					c-0.217,0.26-0.182,0.646,0.078,0.861c0.114,0.097,0.254,0.144,0.392,0.144c0.175,0,0.35-0.075,0.471-0.22
					c8.244-9.882,17.707-18.675,28.099-26.182c-1.379,3.805-2.43,7.615-2.888,11.057c-1.293,9.701-1.993,15.899-2.45,25.641
					c-0.275,5.905-0.317,12.253,0.408,18.055c0.525,4.194,0.633,4.333,5.29,4.906c5.63,0.692,11.69,0.813,17.372,0.8
					c9.03-0.02,20.816,1.063,30.416,0.912V47.369z"/>
			</g>
		</g>
	</g>
</g>
<g id="Layer_3">
	<path fill="#BCD649" d="M212.276,110C212.276,53.514,166.485,7.724,110,7.724S7.724,53.514,7.724,110S53.515,212.276,110,212.276
		S212.276,166.486,212.276,110"/>
	<g>
		<defs>
			<path id="SVGID_21_" d="M7.724,110c0,56.485,45.791,102.276,102.275,102.276c56.486,0,102.276-45.791,102.276-102.276
				c0-56.486-45.79-102.276-102.276-102.276C53.515,7.724,7.724,53.514,7.724,110"/>
		</defs>
		<clipPath id="SVGID_22_">
			<use xlink:href="#SVGID_21_"  overflow="visible"/>
		</clipPath>
		<path clip-path="url(#SVGID_22_)" fill="#FBAB47" d="M158.51,190.621c-0.862-17.111-5.504-33.295-13.472-48.586
			c-9.27-0.813-28.208-4.591-35.076,3.37c-6.867-7.961-25.807-4.184-35.075-3.37c-7.968,15.291-12.61,31.475-13.472,48.586
			c-0.225,4.466-1.289,11.671-0.002,15.923c1.488,4.914,8.969,4.319,13.482,6.318c5.23,2.315,9.866,4.432,15.637,5.443
			c4.695,0.821,14.443,1.48,19.43-0.993c4.988,2.474,14.734,1.814,19.432,0.993c5.77-1.012,10.405-3.128,15.635-5.443
			c4.514-1.999,11.994-1.404,13.482-6.318C159.799,202.292,158.735,195.087,158.51,190.621"/>
		<path clip-path="url(#SVGID_22_)" fill="#B85F28" d="M190.154,110.487c0,43.841-35.817,79.382-80,79.382
			s-79.999-35.541-79.999-79.382s35.816-79.382,79.999-79.382S190.154,66.646,190.154,110.487"/>
		<path clip-path="url(#SVGID_22_)" fill="#FBAB47" d="M89.47,72.038c0,6.496-5.266,11.762-11.762,11.762
			c-6.494,0-11.761-5.266-11.761-11.762c0-6.496,5.267-11.762,11.761-11.762C84.204,60.276,89.47,65.542,89.47,72.038"/>
		<path clip-path="url(#SVGID_22_)" fill="#FED5A2" d="M84.874,72.038c0,3.957-3.209,7.165-7.166,7.165s-7.164-3.208-7.164-7.165
			s3.207-7.165,7.164-7.165S84.874,68.081,84.874,72.038"/>
		<path clip-path="url(#SVGID_22_)" fill="#FBAB47" d="M123.098,138.708c-2.742-3.228-6.285-6.348-9.466-9.155
			c-1.508-1.33-2.562-1.929-3.67-0.432c-1.107-1.497-2.162-0.898-3.668,0.432c-3.183,2.808-6.725,5.928-9.467,9.155
			c-2.201,2.592-7.873,7.758-6.426,10.88c0.555,3.661,5.837,6.208,8.982,7.196c3.31,1.039,6.988,1.457,10.578,1.395
			c3.59,0.063,7.27-0.355,10.578-1.395c3.146-0.988,8.428-3.535,8.982-7.196C130.97,146.466,125.3,141.3,123.098,138.708"/>
		<path clip-path="url(#SVGID_22_)" fill="#FED5A2" d="M110.918,64.358c-7.854,0.152-17.187-1.681-24.188,1.982
			c-5.084,2.661-8.793,9.198-11.049,14.172c-4.429,9.758-6.901,22.796-9.164,33.147c-2.972,13.594-6.174,34.061,12.248,37.052
			c5.681,0.922,12.861,2.143,19.599-0.919c5.335-2.425,9.896-6.596,11.644-12.248c1.25-4.043,0.916-9.086,0.911-13.406
			c-0.008-9.69-0.089-19.475-0.866-29.096C109.216,84.697,110.847,74.79,110.918,64.358"/>
		<path clip-path="url(#SVGID_22_)" fill="#FBAB47" d="M130.454,72.038c0,6.496,5.266,11.762,11.762,11.762
			s11.762-5.266,11.762-11.762c0-6.496-5.266-11.762-11.762-11.762S130.454,65.542,130.454,72.038"/>
		<path clip-path="url(#SVGID_22_)" fill="#FED5A2" d="M135.051,72.038c0,3.957,3.208,7.165,7.165,7.165s7.165-3.208,7.165-7.165
			s-3.208-7.165-7.165-7.165S135.051,68.081,135.051,72.038"/>
		<path clip-path="url(#SVGID_22_)" fill="#FED5A2" d="M109.007,64.358c7.854,0.152,17.186-1.681,24.188,1.982
			c5.085,2.661,8.793,9.198,11.051,14.172c4.428,9.758,6.9,22.796,9.162,33.147c2.973,13.594,6.174,34.061-12.248,37.052
			c-5.68,0.922-12.861,2.143-19.598-0.919c-5.335-2.425-9.896-6.596-11.645-12.248c-1.25-4.043-0.914-9.086-0.91-13.406
			c0.008-9.69,0.088-19.475,0.865-29.096C110.71,84.697,109.077,74.79,109.007,64.358"/>
		<path clip-path="url(#SVGID_22_)" fill="#FBAB47" d="M144.244,80.512c-2.257-4.974-5.965-11.511-11.05-14.172
			c-6.46-3.38-14.899-2.084-22.335-1.982c-0.296,0.005-0.597,0.004-0.897,0.004c-0.3,0-0.601,0.001-0.896-0.004
			c-7.437-0.102-15.875-1.398-22.334,1.982c-5.086,2.661-8.795,9.198-11.051,14.172c-0.561,1.234-1.088,2.521-1.59,3.848
			c3.065,0.44,6.004,1.737,8.656,3.27c7.936,4.586,12.575,9.959,16.305,18.38c3.78,8.537,4.637,17.417,7.326,25.976
			c0.895,0.15,1.789,0.342,2.692,0.489c0.005,0.065,0.005,0.134,0.01,0.199c0.296-0.012,0.589-0.045,0.882-0.076
			c0.293,0.031,0.586,0.064,0.883,0.076c0.006-0.065,0.006-0.134,0.01-0.199c0.904-0.147,1.798-0.339,2.691-0.489
			c2.69-8.559,3.547-17.439,7.327-25.976c3.729-8.421,8.37-13.794,16.304-18.38c2.654-1.533,5.592-2.83,8.656-3.27
			C145.332,83.033,144.804,81.746,144.244,80.512"/>
		<path clip-path="url(#SVGID_22_)" fill="#1D1D1B" d="M98.38,134.47c-18.428,1.173-34.67,10.607-50.17,19.842
			c-0.678,0.402-0.062,1.462,0.617,1.058c15.301-9.115,31.359-18.517,49.553-19.675C99.163,135.645,99.167,134.419,98.38,134.47"/>
		<path clip-path="url(#SVGID_22_)" fill="#1D1D1B" d="M98.028,129.489c-15.871-2.038-31.969-0.826-47.361,3.545
			c-0.758,0.214-0.436,1.397,0.324,1.181c15.297-4.344,31.268-5.525,47.037-3.501C98.81,130.814,98.801,129.588,98.028,129.489"/>
		<path clip-path="url(#SVGID_22_)" fill="#1D1D1B" d="M100.878,138.05c-13.688,8.055-26.063,18.133-36.716,29.913
			c-0.528,0.583,0.336,1.452,0.866,0.866c10.587-11.706,22.865-21.718,36.468-29.722C102.175,138.708,101.56,137.648,100.878,138.05
			"/>
		<path clip-path="url(#SVGID_22_)" fill="#231F20" d="M95.597,110.291c0-2.952-2.393-5.345-5.346-5.345
			c-2.95,0-5.344,2.393-5.344,5.345c0,2.952,2.394,5.344,5.344,5.344C93.204,115.635,95.597,113.242,95.597,110.291"/>
		<path clip-path="url(#SVGID_22_)" fill="#FFFFFF" d="M91.933,110.291c0-0.928-0.752-1.681-1.681-1.681s-1.681,0.753-1.681,1.681
			s0.752,1.681,1.681,1.681S91.933,111.219,91.933,110.291"/>
		<path clip-path="url(#SVGID_22_)" fill="#010101" d="M109.962,128.505c-3.068-0.847-9.289-1.628-6.947,2.925
			c1.004,1.954,6.736,6.774,6.947,6.685c0.213,0.09,5.944-4.73,6.948-6.685C119.251,126.877,113.031,127.658,109.962,128.505"/>
		<path clip-path="url(#SVGID_22_)" fill="#1D1D1B" d="M121.545,135.694c18.193,1.158,34.253,10.56,49.552,19.675
			c0.68,0.404,1.295-0.654,0.618-1.058c-15.5-9.234-31.743-18.669-50.17-19.843C120.758,134.419,120.761,135.645,121.545,135.694"/>
		<path clip-path="url(#SVGID_22_)" fill="#1D1D1B" d="M121.896,130.714c15.771-2.023,31.741-0.843,47.037,3.501
			c0.76,0.215,1.084-0.966,0.325-1.181c-15.392-4.371-31.489-5.582-47.362-3.545C121.125,129.588,121.114,130.814,121.896,130.714"
			/>
		<path clip-path="url(#SVGID_22_)" fill="#1D1D1B" d="M118.429,139.107c13.603,8.005,25.881,18.015,36.468,29.721
			c0.53,0.586,1.394-0.281,0.866-0.865c-10.653-11.78-23.028-21.858-36.717-29.913C118.365,137.649,117.748,138.707,118.429,139.107
			"/>
		<path clip-path="url(#SVGID_22_)" fill="#231F20" d="M124.328,110.291c0-2.952,2.393-5.345,5.345-5.345
			c2.951,0,5.344,2.393,5.344,5.345c0,2.952-2.393,5.344-5.344,5.344C126.721,115.635,124.328,113.242,124.328,110.291"/>
		<path clip-path="url(#SVGID_22_)" fill="#FFFFFF" d="M127.991,110.291c0-0.928,0.752-1.681,1.682-1.681
			c0.928,0,1.68,0.753,1.68,1.681s-0.752,1.681-1.68,1.681C128.743,111.972,127.991,111.219,127.991,110.291"/>
		<g opacity="0.2" clip-path="url(#SVGID_22_)">
			<g>
				<defs>
					<rect id="SVGID_23_" x="30.155" y="31.12" width="79.436" height="187.924"/>
				</defs>
				<clipPath id="SVGID_24_">
					<use xlink:href="#SVGID_23_"  overflow="visible"/>
				</clipPath>
				<path clip-path="url(#SVGID_24_)" fill="#FFFFFF" d="M109.591,31.12c-43.922,0.302-79.437,35.714-79.437,79.368
					c0,26.481,13.081,49.917,33.166,64.339c-0.996,5.175-1.636,10.438-1.905,15.795c-0.226,4.466-1.289,11.671-0.002,15.923
					c1.488,4.914,8.969,4.318,13.483,6.316c5.229,2.316,9.866,4.434,15.635,5.443c4.586,0.803,13.978,1.443,19.06-0.832V31.12z"/>
			</g>
		</g>
	</g>
</g>
<g id="Layer_5" display="none">
</g>
</svg>
