<?xml version="1.0" encoding="utf-8"?>
<!-- Generator: Adobe Illustrator 16.0.3, SVG Export Plug-In . SVG Version: 6.00 Build 0)  -->
<!DOCTYPE svg PUBLIC "-//W3C//DTD SVG 1.1//EN" "http://www.w3.org/Graphics/SVG/1.1/DTD/svg11.dtd">
<svg version="1.1" xmlns="http://www.w3.org/2000/svg" xmlns:xlink="http://www.w3.org/1999/xlink" x="0px" y="0px" width="220px"
	 height="220px" viewBox="0 0 220 220" enable-background="new 0 0 220 220" xml:space="preserve">
<g id="Layer_3" display="none">
	<path display="inline" fill="#BCD649" d="M212.276,110C212.276,53.514,166.485,7.724,110,7.724S7.724,53.514,7.724,110
		S53.515,212.276,110,212.276S212.276,166.486,212.276,110"/>
	<g display="inline">
		<defs>
			<path id="SVGID_1_" d="M7.724,110c0,56.485,45.791,102.276,102.275,102.276c56.486,0,102.276-45.791,102.276-102.276
				c0-56.486-45.79-102.276-102.276-102.276C53.515,7.724,7.724,53.514,7.724,110"/>
		</defs>
		<clipPath id="SVGID_2_">
			<use xlink:href="#SVGID_1_"  overflow="visible"/>
		</clipPath>
		<path clip-path="url(#SVGID_2_)" fill="#FBAB47" d="M158.51,190.621c-0.862-17.111-5.504-33.295-13.472-48.586
			c-9.27-0.813-28.208-4.591-35.076,3.37c-6.867-7.961-25.807-4.184-35.075-3.37c-7.968,15.291-12.61,31.475-13.472,48.586
			c-0.225,4.466-1.289,11.671-0.002,15.923c1.488,4.914,8.969,4.319,13.482,6.318c5.23,2.315,9.866,4.432,15.637,5.443
			c4.695,0.821,14.443,1.48,19.43-0.993c4.988,2.474,14.734,1.814,19.432,0.993c5.77-1.012,10.405-3.128,15.635-5.443
			c4.514-1.999,11.994-1.404,13.482-6.318C159.799,202.292,158.735,195.087,158.51,190.621"/>
		<path clip-path="url(#SVGID_2_)" fill="#B85F28" d="M190.154,110.487c0,43.841-35.817,79.382-80,79.382
			s-79.999-35.541-79.999-79.382s35.816-79.382,79.999-79.382S190.154,66.646,190.154,110.487"/>
		<path clip-path="url(#SVGID_2_)" fill="#FBAB47" d="M89.47,72.038c0,6.496-5.266,11.762-11.762,11.762
			c-6.494,0-11.761-5.266-11.761-11.762c0-6.496,5.267-11.762,11.761-11.762C84.204,60.276,89.47,65.542,89.47,72.038"/>
		<path clip-path="url(#SVGID_2_)" fill="#FED5A2" d="M84.874,72.038c0,3.957-3.209,7.165-7.166,7.165s-7.164-3.208-7.164-7.165
			s3.207-7.165,7.164-7.165S84.874,68.081,84.874,72.038"/>
		<path clip-path="url(#SVGID_2_)" fill="#FBAB47" d="M123.098,138.708c-2.742-3.228-6.285-6.348-9.466-9.155
			c-1.508-1.33-2.562-1.929-3.67-0.432c-1.107-1.497-2.162-0.898-3.668,0.432c-3.183,2.808-6.725,5.928-9.467,9.155
			c-2.201,2.592-7.873,7.758-6.426,10.88c0.555,3.661,5.837,6.208,8.982,7.196c3.31,1.039,6.988,1.457,10.578,1.395
			c3.59,0.063,7.27-0.355,10.578-1.395c3.146-0.988,8.428-3.535,8.982-7.196C130.97,146.466,125.3,141.3,123.098,138.708"/>
		<path clip-path="url(#SVGID_2_)" fill="#FED5A2" d="M110.918,64.358c-7.854,0.152-17.187-1.681-24.188,1.982
			c-5.084,2.661-8.793,9.198-11.049,14.172c-4.429,9.758-6.901,22.796-9.164,33.147c-2.972,13.594-6.174,34.061,12.248,37.052
			c5.681,0.922,12.861,2.143,19.599-0.919c5.335-2.425,9.896-6.596,11.644-12.248c1.25-4.043,0.916-9.086,0.911-13.406
			c-0.008-9.69-0.089-19.475-0.866-29.096C109.216,84.697,110.847,74.79,110.918,64.358"/>
		<path clip-path="url(#SVGID_2_)" fill="#FBAB47" d="M130.454,72.038c0,6.496,5.266,11.762,11.762,11.762
			s11.762-5.266,11.762-11.762c0-6.496-5.266-11.762-11.762-11.762S130.454,65.542,130.454,72.038"/>
		<path clip-path="url(#SVGID_2_)" fill="#FED5A2" d="M135.051,72.038c0,3.957,3.208,7.165,7.165,7.165s7.165-3.208,7.165-7.165
			s-3.208-7.165-7.165-7.165S135.051,68.081,135.051,72.038"/>
		<path clip-path="url(#SVGID_2_)" fill="#FED5A2" d="M109.007,64.358c7.854,0.152,17.186-1.681,24.188,1.982
			c5.085,2.661,8.793,9.198,11.051,14.172c4.428,9.758,6.9,22.796,9.162,33.147c2.973,13.594,6.174,34.061-12.248,37.052
			c-5.68,0.922-12.861,2.143-19.598-0.919c-5.335-2.425-9.896-6.596-11.645-12.248c-1.25-4.043-0.914-9.086-0.91-13.406
			c0.008-9.69,0.088-19.475,0.865-29.096C110.71,84.697,109.077,74.79,109.007,64.358"/>
		<path clip-path="url(#SVGID_2_)" fill="#FBAB47" d="M144.244,80.512c-2.257-4.974-5.965-11.511-11.05-14.172
			c-6.46-3.38-14.899-2.084-22.335-1.982c-0.296,0.005-0.597,0.004-0.897,0.004c-0.3,0-0.601,0.001-0.896-0.004
			c-7.437-0.102-15.875-1.398-22.334,1.982c-5.086,2.661-8.795,9.198-11.051,14.172c-0.561,1.234-1.088,2.521-1.59,3.848
			c3.065,0.44,6.004,1.737,8.656,3.27c7.936,4.586,12.575,9.959,16.305,18.38c3.78,8.537,4.637,17.417,7.326,25.976
			c0.895,0.15,1.789,0.342,2.692,0.489c0.005,0.065,0.005,0.134,0.01,0.199c0.296-0.012,0.589-0.045,0.882-0.076
			c0.293,0.031,0.586,0.064,0.883,0.076c0.006-0.065,0.006-0.134,0.01-0.199c0.904-0.147,1.798-0.339,2.691-0.489
			c2.69-8.559,3.547-17.439,7.327-25.976c3.729-8.421,8.37-13.794,16.304-18.38c2.654-1.533,5.592-2.83,8.656-3.27
			C145.332,83.033,144.804,81.746,144.244,80.512"/>
		<path clip-path="url(#SVGID_2_)" fill="#1D1D1B" d="M98.38,134.47c-18.428,1.173-34.67,10.607-50.17,19.842
			c-0.678,0.402-0.062,1.462,0.617,1.058c15.301-9.115,31.359-18.517,49.553-19.675C99.163,135.645,99.167,134.419,98.38,134.47"/>
		<path clip-path="url(#SVGID_2_)" fill="#1D1D1B" d="M98.028,129.489c-15.871-2.038-31.969-0.826-47.361,3.545
			c-0.758,0.214-0.436,1.397,0.324,1.181c15.297-4.344,31.268-5.525,47.037-3.501C98.81,130.814,98.801,129.588,98.028,129.489"/>
		<path clip-path="url(#SVGID_2_)" fill="#1D1D1B" d="M100.878,138.05c-13.688,8.055-26.063,18.133-36.716,29.913
			c-0.528,0.583,0.336,1.452,0.866,0.866c10.587-11.706,22.865-21.718,36.468-29.722C102.175,138.708,101.56,137.648,100.878,138.05
			"/>
		<path clip-path="url(#SVGID_2_)" fill="#231F20" d="M95.597,110.291c0-2.952-2.393-5.345-5.346-5.345
			c-2.95,0-5.344,2.393-5.344,5.345c0,2.952,2.394,5.344,5.344,5.344C93.204,115.635,95.597,113.242,95.597,110.291"/>
		<path clip-path="url(#SVGID_2_)" fill="#FFFFFF" d="M91.933,110.291c0-0.928-0.752-1.681-1.681-1.681s-1.681,0.753-1.681,1.681
			s0.752,1.681,1.681,1.681S91.933,111.219,91.933,110.291"/>
		<path clip-path="url(#SVGID_2_)" fill="#010101" d="M109.962,128.505c-3.068-0.847-9.289-1.628-6.947,2.925
			c1.004,1.954,6.736,6.774,6.947,6.685c0.213,0.09,5.944-4.73,6.948-6.685C119.251,126.877,113.031,127.658,109.962,128.505"/>
		<path clip-path="url(#SVGID_2_)" fill="#1D1D1B" d="M121.545,135.694c18.193,1.158,34.253,10.56,49.552,19.675
			c0.68,0.404,1.295-0.654,0.618-1.058c-15.5-9.234-31.743-18.669-50.17-19.843C120.758,134.419,120.761,135.645,121.545,135.694"/>
		<path clip-path="url(#SVGID_2_)" fill="#1D1D1B" d="M121.896,130.714c15.771-2.023,31.741-0.843,47.037,3.501
			c0.76,0.215,1.084-0.966,0.325-1.181c-15.392-4.371-31.489-5.582-47.362-3.545C121.125,129.588,121.114,130.814,121.896,130.714"
			/>
		<path clip-path="url(#SVGID_2_)" fill="#1D1D1B" d="M118.429,139.107c13.603,8.005,25.881,18.015,36.468,29.721
			c0.53,0.586,1.394-0.281,0.866-0.865c-10.653-11.78-23.028-21.858-36.717-29.913C118.365,137.649,117.748,138.707,118.429,139.107
			"/>
		<path clip-path="url(#SVGID_2_)" fill="#231F20" d="M124.328,110.291c0-2.952,2.393-5.345,5.345-5.345
			c2.951,0,5.344,2.393,5.344,5.345c0,2.952-2.393,5.344-5.344,5.344C126.721,115.635,124.328,113.242,124.328,110.291"/>
		<path clip-path="url(#SVGID_2_)" fill="#FFFFFF" d="M127.991,110.291c0-0.928,0.752-1.681,1.682-1.681
			c0.928,0,1.68,0.753,1.68,1.681s-0.752,1.681-1.68,1.681C128.743,111.972,127.991,111.219,127.991,110.291"/>
		<g opacity="0.2" clip-path="url(#SVGID_2_)">
			<g>
				<defs>
					<rect id="SVGID_3_" x="30.155" y="31.12" width="79.436" height="187.924"/>
				</defs>
				<clipPath id="SVGID_4_">
					<use xlink:href="#SVGID_3_"  overflow="visible"/>
				</clipPath>
				<path clip-path="url(#SVGID_4_)" fill="#FFFFFF" d="M109.591,31.12c-43.922,0.302-79.437,35.714-79.437,79.368
					c0,26.481,13.081,49.917,33.166,64.339c-0.996,5.175-1.636,10.438-1.905,15.795c-0.226,4.466-1.289,11.671-0.002,15.923
					c1.488,4.914,8.969,4.318,13.483,6.316c5.229,2.316,9.866,4.434,15.635,5.443c4.586,0.803,13.978,1.443,19.06-0.832V31.12z"/>
			</g>
		</g>
	</g>
</g>
<g id="Layer_1" display="none">
	<g display="inline">
		<path fill="#F16571" d="M213.014,111.163c0-56.486-45.791-102.276-102.277-102.276c-56.485,0-102.275,45.79-102.275,102.276
			c0,56.485,45.79,102.275,102.275,102.275C167.223,213.438,213.014,167.648,213.014,111.163"/>
		<path fill="#F16571" d="M213.014,111.163c0-56.486-45.791-102.276-102.277-102.276c-56.485,0-102.275,45.79-102.275,102.276
			c0,56.485,45.79,102.275,102.275,102.275C167.223,213.438,213.014,167.648,213.014,111.163"/>
		<g>
			<defs>
				<path id="SVGID_5_" d="M8.46,111.163c0,56.485,45.792,102.276,102.276,102.276c56.486,0,102.275-45.791,102.275-102.276
					c0-56.486-45.789-102.276-102.275-102.276C54.252,8.887,8.46,54.677,8.46,111.163"/>
			</defs>
			<clipPath id="SVGID_6_">
				<use xlink:href="#SVGID_5_"  overflow="visible"/>
			</clipPath>
			<path clip-path="url(#SVGID_6_)" fill="#BEB3B8" d="M168.99,187.644c-1.008-7.086-2.059-13.567-4.99-20.366
				c-3.223-7.473-9.465-22.073-17.023-25.461c-5.305,3.112-11.773,3.636-17.656,5.401c-5.354,1.606-14.897,2.99-19.407,7.549
				c-4.509-4.559-14.053-5.942-19.407-7.549c-5.883-1.766-12.352-2.289-17.655-5.401c-7.56,3.388-13.802,17.988-17.025,25.461
				c-2.932,6.799-3.982,13.28-4.99,20.366c-0.687,4.83-3.353,12.863,0.772,16.739c3.787,3.558,9.042,11.338,13.809,11.898
				c6.588,0.773,8.882,9.437,15.514,9.799c7.737,0.422,21.115,2.245,28.581,1.633c7.465,0.612,20.027-1.211,27.764-1.633
				c6.633-0.362,15.459-4.125,22.047-4.899c4.767-0.56,8.461-7.058,12.248-10.615C175.697,206.69,169.677,192.474,168.99,187.644"/>
			<path clip-path="url(#SVGID_6_)" fill="#E1DBDD" d="M102.467,87.787c-5.038-10.474-11.678-22.544-20.385-31.061
				c-4.328-4.233-16.385-13.389-22.938-12.207c-6.742,1.214,2.799,16.604,4.899,20.74c4.862,9.574,10.462,18.338,17.68,26.204
				c2.943,3.21,5.742,8.956,10.065,6.096C94.476,95.78,99.35,90.563,102.467,87.787"/>
		</g>
		<g>
			<defs>
				<path id="SVGID_7_" d="M59.143,44.519c-6.742,1.216,2.799,16.604,4.899,20.74c4.862,9.576,10.463,18.338,17.68,26.205
					c2.943,3.209,5.743,8.956,10.066,6.095c2.687-1.778,7.562-6.994,10.679-9.771c-5.038-10.473-11.679-22.544-20.386-31.062
					c-4.069-3.979-14.971-12.311-21.707-12.312C59.945,44.414,59.535,44.448,59.143,44.519"/>
			</defs>
			<clipPath id="SVGID_8_">
				<use xlink:href="#SVGID_7_"  overflow="visible"/>
			</clipPath>
			<path clip-path="url(#SVGID_8_)" fill="#EFBBBB" d="M53.575,51.34C66.59,55.583,77.921,67.725,83.471,79.86
				c2.217,4.847,3.845,9.686,3.934,14.948c0.047,2.739-0.135,5.898-2.045,8.063c-5.072,5.748-10.278-3.684-13.37-7.53
				c-7.021-8.733-11.493-18.775-16.218-28.81C53.87,62.492,50.885,55.766,53.575,51.34"/>
		</g>
		<g>
			<defs>
				<path id="SVGID_9_" d="M8.46,111.163c0,56.485,45.792,102.276,102.276,102.276c56.486,0,102.275-45.791,102.275-102.276
					c0-56.486-45.789-102.276-102.275-102.276C54.252,8.887,8.46,54.677,8.46,111.163"/>
			</defs>
			<clipPath id="SVGID_10_">
				<use xlink:href="#SVGID_9_"  overflow="visible"/>
			</clipPath>
			<path clip-path="url(#SVGID_10_)" fill="#C9C0C4" d="M129.09,153.762c-0.536-3.015-2.346-5.732-4.021-8.224
				c-2.483-3.692-9.083-15.887-14.532-13.242c-0.227,0.11-0.427,0.247-0.625,0.387c-0.197-0.14-0.396-0.276-0.623-0.387
				c-5.449-2.645-12.049,9.55-14.533,13.242c-1.674,2.491-3.484,5.209-4.02,8.224c-0.25,1.407,0.142,2.869-0.578,3.658
				c0.901,3.212,6.277,5.823,9.237,6.497c2.17,0.494,7.343,1.524,10.519,1.524c3.174,0,8.347-1.03,10.517-1.524
				c2.96-0.674,8.335-3.285,9.237-6.497C128.947,156.631,129.34,155.169,129.09,153.762"/>
			<path clip-path="url(#SVGID_10_)" fill="#FFFFFF" d="M104.338,143.657c-0.545,2.788-1.24,5.578-1.774,8.377
				c-0.411,2.155-1.018,4.783-0.075,6.851c0.508,1.116,0.823,1.376,2.043,1.469c0.844,0.065,1.691,0.079,2.531,0.155
				c0.754,0.066,1.631,0.353,2.214-0.224c0.966-0.953,0.878-3.143,0.979-4.387c0.277-3.355,0.16-6.74,0.359-10.1
				c0.082-1.387,0.09-2.695-1.553-3.17C107.682,142.229,105.287,142.306,104.338,143.657"/>
			<path clip-path="url(#SVGID_10_)" fill="#FFFFFF" d="M110.042,143.171c0,1.8,0.259,3.566,0.278,5.357
				c0.017,1.584,0.011,3.112,0.279,4.678c0.198,1.165,0.363,2.331,0.556,3.496c0.106,0.646,0.153,1.64,0.61,2.14
				c0.785,0.859,2.84,0.526,3.808,0.251c0.909-0.257,1.558-0.565,1.772-1.446c0.273-1.131,0.045-2.289-0.064-3.418
				c-0.15-1.531-0.396-3.068-0.704-4.57c-0.306-1.5-0.593-3.016-1.06-4.479c-0.211-0.668-0.471-1.549-1.039-2.014
				C113.564,142.419,111.303,142.33,110.042,143.171"/>
			<path clip-path="url(#SVGID_10_)" fill="#E1DBDD" d="M117.359,87.787c5.039-10.474,11.678-22.544,20.385-31.061
				c4.328-4.233,16.386-13.389,22.938-12.207c6.742,1.214-2.799,16.604-4.899,20.74c-4.861,9.574-10.461,18.338-17.68,26.204
				c-2.943,3.21-5.742,8.956-10.064,6.096C125.351,95.78,120.477,90.563,117.359,87.787"/>
		</g>
		<g>
			<defs>
				<path id="SVGID_11_" d="M137.745,56.726c-8.707,8.518-15.349,20.589-20.386,31.062c3.117,2.777,7.992,7.993,10.679,9.771
					c4.324,2.861,7.123-2.886,10.065-6.095c7.218-7.867,12.817-16.629,17.681-26.205c2.101-4.136,11.642-19.524,4.899-20.74
					c-0.393-0.07-0.804-0.104-1.231-0.104C152.717,44.415,141.814,52.747,137.745,56.726"/>
			</defs>
			<clipPath id="SVGID_12_">
				<use xlink:href="#SVGID_11_"  overflow="visible"/>
			</clipPath>
			<path clip-path="url(#SVGID_12_)" fill="#EFBBBB" d="M166.251,51.34c-13.015,4.243-24.347,16.385-29.896,28.521
				c-2.217,4.847-3.846,9.686-3.935,14.948c-0.047,2.739,0.136,5.898,2.045,8.063c5.072,5.748,10.278-3.684,13.37-7.53
				c7.021-8.733,11.493-18.775,16.219-28.81C165.956,62.492,168.941,55.766,166.251,51.34"/>
		</g>
		<g>
			<defs>
				<path id="SVGID_13_" d="M8.46,111.163c0,56.485,45.792,102.276,102.276,102.276c56.486,0,102.275-45.791,102.275-102.276
					c0-56.486-45.789-102.276-102.275-102.276C54.252,8.887,8.46,54.677,8.46,111.163"/>
			</defs>
			<clipPath id="SVGID_14_">
				<use xlink:href="#SVGID_13_"  overflow="visible"/>
			</clipPath>
			<path clip-path="url(#SVGID_14_)" fill="#DAD3D5" d="M151.1,132.132c-2.207-6.462-7.596-10.709-11.815-16.077
				c-4.565-5.805-2.815-14.016-6.317-20.374c-2.42-4.395-5.729-8.933-10.381-10.962c-3.518-1.536-7.158-2.065-10.91-2.231
				c-0.004-0.022-0.008-0.049-0.013-0.07c-0.586,0-1.169,0.005-1.75,0.015c-0.581-0.01-1.163-0.015-1.75-0.015
				c-0.005,0.021-0.008,0.048-0.013,0.07c-3.751,0.166-7.392,0.695-10.911,2.231c-4.651,2.029-7.96,6.567-10.38,10.962
				c-3.501,6.358-1.312,14.762-5.877,20.568c-4.221,5.368-9.416,8.84-11.622,15.302c-1.975,5.788-2.27,13.414,1.356,18.401
				c4.122,5.67,10.288,9.169,16.885,9.886c11.16,1.213,19.145-6.341,22.312-15.983c3.167,9.643,11.152,17.196,22.312,15.983
				c6.598-0.717,12.428-4.604,16.551-10.274C152.4,144.578,153.074,137.92,151.1,132.132"/>
			<path clip-path="url(#SVGID_14_)" fill="#231F20" d="M98.55,114.137c0-2.765-2.241-5.006-5.006-5.006
				c-2.765,0-5.007,2.241-5.007,5.006s2.242,5.006,5.007,5.006C96.309,119.143,98.55,116.901,98.55,114.137"/>
			<path clip-path="url(#SVGID_14_)" fill="#FFFFFF" d="M95.118,114.137c0-0.869-0.705-1.574-1.574-1.574
				c-0.87,0-1.575,0.705-1.575,1.574s0.705,1.574,1.575,1.574C94.413,115.711,95.118,115.006,95.118,114.137"/>
			<path clip-path="url(#SVGID_14_)" fill="#231F20" d="M120.627,114.137c0-2.765,2.24-5.006,5.006-5.006s5.007,2.241,5.007,5.006
				s-2.241,5.006-5.007,5.006S120.627,116.901,120.627,114.137"/>
			<path clip-path="url(#SVGID_14_)" fill="#FFFFFF" d="M124.059,114.137c0-0.869,0.705-1.574,1.574-1.574
				c0.87,0,1.575,0.705,1.575,1.574s-0.705,1.574-1.575,1.574C124.764,115.711,124.059,115.006,124.059,114.137"/>
			<path clip-path="url(#SVGID_14_)" fill="#E38383" d="M110.024,139.063c-0.027-1.551-1.751-2.764-2.888-3.526
				c-0.762-0.509-1.621-0.81-2.347-1.378c-0.419-0.329-1.409-1.274-1.146-1.867c0.41-0.917,3.049-0.638,3.804-0.638
				c1.631,0,3.296-0.095,4.91-0.032c0.964,0.037,4.864-0.406,4.106,1.539c-0.658,1.692-3.301,2.319-4.627,3.316
				c-0.574,0.431-1.125,0.927-1.42,1.588C110.234,138.476,110.272,139.107,110.024,139.063"/>
			<g opacity="0.2" clip-path="url(#SVGID_14_)">
				<g>
					<defs>
						<rect id="SVGID_15_" x="49.354" y="44.415" width="62.607" height="183.423"/>
					</defs>
					<clipPath id="SVGID_16_">
						<use xlink:href="#SVGID_15_"  overflow="visible"/>
					</clipPath>
					<path clip-path="url(#SVGID_16_)" fill="#FFFFFF" d="M111.961,82.505c-0.096-0.005-0.189-0.014-0.285-0.018
						c-0.004-0.023-0.008-0.048-0.013-0.071c-0.586,0-1.169,0.006-1.75,0.017c-0.581-0.011-1.164-0.017-1.75-0.017
						c-0.005,0.023-0.008,0.048-0.013,0.071c-2.639,0.116-5.219,0.422-7.744,1.122c-4.75-9.391-10.756-19.479-18.325-26.883
						c-4.328-4.233-16.384-13.389-22.938-12.207c-3.205,0.577-2.728,4.358-1.122,8.611c0.658,2.184,5.646,11.233,7.548,15.273
						c4.725,10.034,16.306,23.655,20.67,28.555c-2.067,5.053-1.455,14.622-5.257,19.29c-4.313,5.293-9.416,8.839-11.622,15.302
						c-1.402,4.107-1.948,9.137-0.857,13.495c-5.578,5.708-10.097,16.248-12.677,22.231c-2.932,6.799-3.982,13.281-4.99,20.367
						c-0.687,4.83-3.354,12.863,0.772,16.738c3.787,3.558,9.042,11.339,13.808,11.898c6.588,0.774,8.882,9.438,15.515,9.799
						c7.737,0.422,21.114,2.244,28.581,1.633c0.762,0.063,1.59,0.095,2.449,0.11V82.505z"/>
				</g>
			</g>
		</g>
	</g>
</g>
<g id="Layer_4" display="none">
	<path display="inline" fill="#BCD649" d="M212.275,110C212.275,53.513,166.484,7.723,110,7.723
		C53.514,7.723,7.724,53.513,7.724,110c0,56.485,45.79,102.276,102.276,102.276C166.484,212.275,212.275,166.484,212.275,110"/>
	<g display="inline">
		<defs>
			<path id="SVGID_17_" d="M7.724,110c0,56.485,45.79,102.276,102.276,102.276c56.485,0,102.276-45.791,102.276-102.276
				C212.276,53.513,166.485,7.723,110,7.723C53.514,7.723,7.724,53.513,7.724,110"/>
		</defs>
		<clipPath id="SVGID_18_">
			<use xlink:href="#SVGID_17_"  overflow="visible"/>
		</clipPath>
		<path clip-path="url(#SVGID_18_)" fill="#BE4129" d="M77.671,136.93c-0.93,2.391,0.873,6.848,0.092,10.021
			c-0.934,3.795-2.731,7.898-4.362,11.414c-3.366,7.25-8.238,13.707-11.421,21.051c-2.925,6.748-4.527,13.975-4.519,21.293
			c0.004,3.779-0.591,8.176,0.239,11.871c1.182,5.262,7.3,7.967,11.948,9.883c14.943,6.162,31.054,13.107,46.88,5.967
			c-0.841-2.328,0.506-5.168,0.675-7.652c0.423-6.215,0.312-12.717,0.276-18.928c-0.072-12.521,0.558-25.811,0-38.277
			c-0.324-7.227-2.036-14.381-8.715-18.977c-4.695-3.229-9.547-3.867-14.723-5.725C90.117,137.463,85.977,135.645,77.671,136.93"/>
		<path clip-path="url(#SVGID_18_)" fill="#BE4129" d="M142.328,136.916c0.93,2.389-0.873,6.848-0.092,10.021
			c0.934,3.795,2.731,7.898,4.363,11.412c3.365,7.252,8.237,13.709,11.421,21.053c2.924,6.746,4.526,13.973,4.518,21.293
			c-0.004,3.777,0.591,8.176-0.239,11.871c-1.182,5.262-7.3,7.967-11.947,9.883c-14.944,6.162-31.055,13.107-46.881,5.967
			c0.842-2.33-0.506-5.168-0.675-7.654c-0.423-6.215-0.312-12.717-0.275-18.928c0.071-12.52-0.559-25.811,0-38.277
			c0.323-7.225,2.035-14.381,8.714-18.975c4.696-3.23,9.547-3.869,14.723-5.725C129.882,137.449,134.023,135.629,142.328,136.916"/>
		<path clip-path="url(#SVGID_18_)" fill="#E9D8C9" d="M138.638,212.844c-0.606-11.119-1.043-22.77-5.952-33.031
			c-3.816-7.979-11.181-17.662-21.116-17.77c-0.463-0.166-0.953-0.229-1.467-0.182c-0.629-0.094-1.221-0.02-1.774,0.199
			c-9.885,0.172-17.211,9.816-21.014,17.766c-4.91,10.264-5.347,21.912-5.953,33.031c-0.474,8.658-2.857,26.271,6.275,31.416
			c4.841,2.725,12.365,3.373,17.745,2.605c1.764-0.252,3.291-0.676,4.633-1.252c1.336,0.57,2.854,0.988,4.604,1.238
			c5.379,0.766,12.905,0.119,17.744-2.607C141.495,239.115,139.111,221.5,138.638,212.844"/>
		<path clip-path="url(#SVGID_18_)" fill="#702F1F" d="M56.862,33.532c0,0,9.681,0.164,21,8.581
			c11.318,8.416,16.762,16.898,18.068,19.655c1.306,2.757,2.03,5.515,2.03,5.515s-13.495,2.177-19.59,6.095
			S65.165,86.583,65.165,86.583s-4.53-5.476-8.303-17.374C53.089,57.309,53.524,38.465,56.862,33.532"/>
		<path clip-path="url(#SVGID_18_)" fill="#E9D8C9" d="M75.83,47.532c-9.578-9.578-16.081-11.193-17.387-10.613
			c-1.307,0.58-0.468,13.938,1.129,20.323c1.596,6.385,4.142,13.089,6.754,18.313c1.353,2.704,2.49,4.512,3.343,5.69
			c2.514-2.767,5.729-5.955,8.702-7.867c2.937-1.888,7.59-3.37,11.626-4.401C87.284,63.845,82.982,54.683,75.83,47.532"/>
		<path clip-path="url(#SVGID_18_)" fill="#E9D8C9" d="M61.077,90.195c0,0,3.764,4.652-2.069,13.225
			c-11.065,16.258-33.847,11.045-33.847,11.045l17.196,6.748c0,0-1.522,2.178-7.183,5.334c-4.873,2.717-6.53,3.156-6.53,3.156
			s7.618,2.176,12.19,2.176c4.57,0,7.836-0.217,7.836-0.217s-4.137,4.135-5.442,6.529s-1.741,3.918-1.741,3.918
			s22.855-5.877,42.229,3.266s22.638,20.025,23.291,22.639c0.652,2.611,1.74,0.217,1.74,0.217s0.871-35.916-5.006-52.242
			c-5.877-16.324-14.148-35.479-21.113-36.132C75.661,79.204,61.077,90.195,61.077,90.195"/>
		<path clip-path="url(#SVGID_18_)" fill="#231F20" d="M86.544,117.193c0-3.266-2.646-5.912-5.912-5.912
			c-3.265,0-5.912,2.646-5.912,5.912s2.647,5.912,5.912,5.912C83.897,123.105,86.544,120.459,86.544,117.193"/>
		<path clip-path="url(#SVGID_18_)" fill="#FFFFFF" d="M82.491,117.193c0-1.027-0.832-1.859-1.858-1.859
			c-1.027,0-1.859,0.832-1.859,1.859s0.832,1.859,1.859,1.859C81.659,119.053,82.491,118.221,82.491,117.193"/>
		<path clip-path="url(#SVGID_18_)" fill="#231F20" d="M116.294,169.863c0,4.027-2.826,7.291-6.313,7.291s-6.313-3.264-6.313-7.291
			s2.826-7.293,6.313-7.293S116.294,165.836,116.294,169.863"/>
		<path clip-path="url(#SVGID_18_)" fill="#702F1F" d="M163.137,33.517c0,0-9.681,0.164-21,8.581
			c-11.318,8.416-16.762,16.898-18.067,19.656c-1.307,2.757-2.031,5.514-2.031,5.514s13.495,2.177,19.59,6.095
			c6.096,3.918,13.206,13.206,13.206,13.206s4.53-5.475,8.303-17.374C166.91,57.295,166.476,38.451,163.137,33.517"/>
		<path clip-path="url(#SVGID_18_)" fill="#E9D8C9" d="M144.169,47.517c9.578-9.578,16.081-11.193,17.388-10.613
			c1.306,0.58,0.467,13.938-1.13,20.323c-1.596,6.385-4.142,13.089-6.754,18.313c-1.353,2.703-2.489,4.511-3.343,5.689
			c-2.514-2.766-5.728-5.955-8.702-7.867c-2.937-1.888-7.59-3.37-11.626-4.4C132.715,63.832,137.018,54.669,144.169,47.517"/>
		<path clip-path="url(#SVGID_18_)" fill="#E9D8C9" d="M158.922,90.181c0,0-3.763,4.651,2.069,13.224
			c11.065,16.257,33.847,11.046,33.847,11.046l-17.196,6.748c0,0,1.524,2.176,7.184,5.332c4.872,2.719,6.529,3.156,6.529,3.156
			s-7.618,2.178-12.188,2.178c-4.572,0-7.837-0.217-7.837-0.217s4.136,4.135,5.441,6.529c1.307,2.395,1.742,3.918,1.742,3.918
			s-22.855-5.877-42.229,3.266s-22.639,20.025-23.291,22.637c-0.653,2.613-1.741,0.219-1.741,0.219s-0.871-35.916,5.006-52.242
			c5.877-16.325,14.149-35.48,21.114-36.132C144.338,79.189,158.922,90.181,158.922,90.181"/>
		<path clip-path="url(#SVGID_18_)" fill="#231F20" d="M133.455,117.18c0-3.266,2.647-5.912,5.912-5.912s5.912,2.646,5.912,5.912
			c0,3.264-2.647,5.912-5.912,5.912S133.455,120.443,133.455,117.18"/>
		<path clip-path="url(#SVGID_18_)" fill="#FFFFFF" d="M137.508,117.18c0-1.027,0.832-1.859,1.859-1.859
			c1.026,0,1.858,0.832,1.858,1.859s-0.832,1.857-1.858,1.857C138.34,119.037,137.508,118.207,137.508,117.18"/>
		<path clip-path="url(#SVGID_18_)" fill="#BE4129" d="M147.67,72.695c-14.259-12.79-61.143-12.721-75.34,0.014
			c-15.131,13.573-19.87,37.485-19.87,37.485s13.348-11.038,24.611-9.484c13.098,1.807,19.559,6.305,23.259,23.935
			c3.7,17.633,6.458,45.545,6.458,45.545h3.049h0.993v-0.014h2.38c0,0,2.759-27.914,6.46-45.545
			c3.699-17.632,10.16-22.129,23.258-23.936c11.264-1.553,24.612,9.484,24.612,9.484S162.801,86.268,147.67,72.695"/>
		<path clip-path="url(#SVGID_18_)" fill="#231F20" d="M103.706,169.85c0,4.025,2.825,7.291,6.312,7.291
			c3.487,0,6.313-3.266,6.313-7.291c0-4.027-2.826-7.293-6.313-7.293C106.531,162.557,103.706,165.822,103.706,169.85"/>
		<g opacity="0.2" clip-path="url(#SVGID_18_)">
			<g>
				<defs>
					<rect id="SVGID_19_" x="25.162" y="33.532" width="84.004" height="213.646"/>
				</defs>
				<clipPath id="SVGID_20_">
					<use xlink:href="#SVGID_19_"  overflow="visible"/>
				</clipPath>
				<path clip-path="url(#SVGID_20_)" fill="#FFFFFF" d="M109.166,63.152c-4.168,0.033-8.325,0.296-12.308,0.805
					c-0.266-0.694-0.573-1.439-0.929-2.188c-1.306-2.757-6.749-11.239-18.067-19.655c-11.318-8.417-21-8.581-21-8.581
					c-3.338,4.934-3.773,23.777,0,35.678c2.217,6.99,4.688,11.747,6.354,14.496c-7.43,11.712-10.336,24.502-10.712,26.269
					c-11.662,8.067-27.343,4.491-27.343,4.491l17.195,6.748c0,0-1.523,2.178-7.183,5.334c-4.873,2.717-6.53,3.156-6.53,3.156
					s7.618,2.176,12.189,2.176s7.836-0.217,7.836-0.217s-4.135,4.135-5.441,6.531c-1.307,2.393-1.741,3.918-1.741,3.918
					s18.521-4.758,36.35,0.961c0.148,1.355,0.215,2.705-0.074,3.879c-0.934,3.795-2.73,7.898-4.363,11.414
					c-3.365,7.252-8.237,13.707-11.421,21.051c-2.924,6.748-4.526,13.973-4.518,21.293c0.004,3.779-0.591,8.176,0.239,11.871
					c1.182,5.262,7.301,7.967,11.947,9.883c3.64,1.5,7.348,3.047,11.104,4.424c0.165,7.203,1.581,14.398,6.886,17.385
					c4.84,2.727,12.366,3.373,17.745,2.607c1.404-0.199,2.653-0.514,3.784-0.924V63.152z"/>
			</g>
		</g>
	</g>
</g>
<g id="Layer_2" display="none">
	<path display="inline" fill="#5BCAF4" d="M212.276,110C212.276,53.514,166.485,7.724,110,7.724S7.724,53.514,7.724,110
		c0,56.486,45.791,102.275,102.276,102.275S212.276,166.486,212.276,110"/>
	<g display="inline">
		<defs>
			<path id="SVGID_21_" d="M7.724,110c0,56.485,45.791,102.276,102.276,102.276S212.276,166.485,212.276,110
				C212.276,53.514,166.485,7.724,110,7.724S7.724,53.514,7.724,110"/>
		</defs>
		<clipPath id="SVGID_22_">
			<use xlink:href="#SVGID_21_"  overflow="visible"/>
		</clipPath>
		<path clip-path="url(#SVGID_22_)" fill="#B85F28" d="M132.093,59.048c0,10.578,8.381,19.154,18.72,19.154
			c10.338,0,18.72-8.576,18.72-19.154c0-10.579-8.382-19.155-18.72-19.155C140.474,39.893,132.093,48.469,132.093,59.048"/>
		<path clip-path="url(#SVGID_22_)" fill="#FFFFFF" d="M137.852,62.092c0,6.013,4.763,10.887,10.64,10.887
			c5.876,0,10.639-4.874,10.639-10.887c0-6.014-4.763-10.888-10.639-10.888C142.614,51.204,137.852,56.078,137.852,62.092"/>
		<path clip-path="url(#SVGID_22_)" fill="#B85F28" d="M85.622,59.048c0,10.578-8.381,19.154-18.72,19.154
			s-18.72-8.576-18.72-19.154c0-10.579,8.381-19.155,18.72-19.155S85.622,48.469,85.622,59.048"/>
		<path clip-path="url(#SVGID_22_)" fill="#FFFFFF" d="M79.864,62.092c0,6.013-4.764,10.887-10.641,10.887
			c-5.876,0-10.639-4.874-10.639-10.887c0-6.014,4.763-10.888,10.639-10.888C75.101,51.204,79.864,56.078,79.864,62.092"/>
		<path clip-path="url(#SVGID_22_)" fill="#FBAB47" d="M162.835,193.398c-0.456-9.741-1.157-15.939-2.45-25.641
			c-1.194-8.963-6.386-20.443-11.024-27.765c-3.177-5.678-11.886-5.772-19.28-6.439c-5.234-0.474-13.039,0.713-17.084,4.288
			c-1.81,1.6-3.188,3.37-4.139,5.306c-0.95-1.936-2.33-3.706-4.139-5.306c-4.044-3.575-11.849-4.762-17.084-4.288
			c-7.394,0.667-16.103,0.762-19.281,6.439c-4.637,7.321-9.829,18.802-11.022,27.765c-1.293,9.701-1.994,15.899-2.451,25.641
			c-0.276,5.905-0.317,12.253,0.408,18.055c0.525,4.194,0.633,4.333,5.289,4.906c5.631,0.692,11.691,0.813,17.373,0.8
			c9.182-0.02,21.225,1.105,30.907,0.91c9.684,0.195,21.726-0.93,30.907-0.91c5.681,0.014,11.742-0.107,17.373-0.8
			c4.656-0.573,4.764-0.712,5.289-4.906C163.152,205.651,163.11,199.304,162.835,193.398"/>
		<path clip-path="url(#SVGID_22_)" fill="#FDC57E" d="M79.577,189.805c0-16.63,16.586-35.381,25.622-42.127
			c0.731-0.546,1.403-0.836,2.563-0.836s1.834,0.29,2.564,0.836c9.036,6.746,25.622,25.497,25.622,42.127
			c0,3.911,0.231,9.01-4.454,10.247c-4.898,1.295-8.403-4.04-11.48-6.748c-0.656,4.756,0.502,9.164-2.566,13.384
			c-2.104,2.893-6.006,5.221-9.565,5.105c-0.001,0.002-0.001,0.004-0.001,0.006c-0.04,0.002-0.08-0.005-0.119-0.003
			c-0.039-0.002-0.078,0.005-0.119,0.003c0-0.002,0-0.004,0-0.006c-3.56,0.115-7.461-2.213-9.565-5.105
			c-3.069-4.22-1.91-8.628-2.567-13.384c-3.076,2.708-6.582,8.043-11.479,6.748C79.345,198.814,79.577,193.716,79.577,189.805"/>
		<path clip-path="url(#SVGID_22_)" fill="#FBAB47" d="M108.294,47.438c0,0,11.029-1.161,24.67,4.063
			c13.64,5.225,20.316,14.803,24.959,23.51c4.644,8.706,6.095,21.477,6.095,21.477s14.803,5.804,20.316,10.158l5.515,4.353
			l-16.253,4.645c0,0,6.965,8.417,8.997,11.028c2.031,2.612,2.902,4.644,2.902,4.644h-13.642c0,0,6.096,9.578,7.256,14.512
			c1.161,4.934,0.871,8.997,0.871,8.997s-13.061-5.224-29.604-4.353c-16.543,0.869-26.991,11.608-33.376,14.221
			s-8.707,2.031-8.707,2.031V47.438z"/>
		<path clip-path="url(#SVGID_22_)" fill="#FBAB47" d="M109.421,47.438c0,0-11.029-1.161-24.67,4.063
			c-13.64,5.225-20.316,14.803-24.959,23.51c-4.645,8.706-6.095,21.477-6.095,21.477s-14.802,5.804-20.315,10.158l-5.516,4.353
			l16.253,4.645c0,0-6.965,8.417-8.997,11.028c-2.031,2.612-2.902,4.644-2.902,4.644h13.642c0,0-6.095,9.578-7.257,14.512
			c-1.16,4.934-0.87,8.997-0.87,8.997s13.061-5.224,29.604-4.353c16.543,0.869,26.99,11.608,33.375,14.221s8.707,2.031,8.707,2.031
			V47.438z"/>
		<path clip-path="url(#SVGID_22_)" fill="#FFFFFF" d="M179.11,145.826c-0.941-3.997-5.118-11.04-6.672-13.571
			c-13.468-15.4-41.995-17.691-63.58-16.804c-21.586-0.888-50.113,1.403-63.582,16.804c-1.553,2.531-5.73,9.574-6.672,13.571
			c-1.16,4.934-0.869,8.997-0.869,8.997s13.06-5.224,29.603-4.354s26.991,11.609,33.376,14.222c4.641,1.897,7.127,2.108,8.145,2.083
			c1.016,0.025,3.503-0.186,8.143-2.083c6.385-2.612,16.833-13.352,33.376-14.222s29.604,4.354,29.604,4.354
			S180.271,150.76,179.11,145.826"/>
		<path clip-path="url(#SVGID_22_)" fill="#010101" d="M149.154,99.272c0.059-2.507,3.983-6.434,5.388-8.508
			c1.726-2.545,3.749-5.024,5.645-7.391c0.222-0.278,0.478-0.65,0.76-0.983c1.288,4.036,2.101,8.007,2.564,10.702
			c-2.294,1.372-5.461,2.32-7.049,3.098C154.087,97.354,151.572,98.287,149.154,99.272"/>
		<path clip-path="url(#SVGID_22_)" fill="#010101" d="M147.017,85.911c0.255-1.724,8.035-9.459,10.769-11.153
			c0.046,0.084,0.094,0.169,0.139,0.253c0.898,1.686,1.678,3.525,2.35,5.395c-1.869,1.106-4.325,1.879-5.978,2.683
			C152.184,84.114,149.354,85.817,147.017,85.911"/>
		<path clip-path="url(#SVGID_22_)" fill="#010101" d="M116.995,74.458c-1.596-6.461-2.415-13.248-3.308-19.868
			c-0.305-2.255-0.518-4.821-0.908-7.231c2.691,0.085,6.438,0.413,10.83,1.363c-0.441,4.817-1.768,9.521-2.981,14.206
			C119.637,66.753,118.793,70.941,116.995,74.458"/>
		<path clip-path="url(#SVGID_22_)" fill="#231F20" d="M122.794,105.283c0-2.952,2.393-5.345,5.345-5.345
			c2.951,0,5.344,2.393,5.344,5.345s-2.393,5.345-5.344,5.345C125.187,110.628,122.794,108.235,122.794,105.283"/>
		<path clip-path="url(#SVGID_22_)" fill="#FFFFFF" d="M126.458,105.283c0-0.928,0.752-1.681,1.681-1.681
			c0.928,0,1.68,0.753,1.68,1.681s-0.752,1.681-1.68,1.681C127.21,106.964,126.458,106.211,126.458,105.283"/>
		<path clip-path="url(#SVGID_22_)" fill="#231F20" d="M109.145,125.958c1.718,0,7.483-0.701,8.39,1.069
			c0.991,1.936-3.31,5.7-4.531,6.624c-1.306,0.987-2.26,1.262-3.717,1.899C108.342,132.92,109.74,129.096,109.145,125.958"/>
		<path clip-path="url(#SVGID_22_)" fill="#231F20" d="M108.918,134.787c-0.551,6.063,1.59,12.695,7.506,15.375
			c5.497,2.49,13.748,1.306,18.477-2.313c0.626-0.479-0.167-1.412-0.793-0.934c-4.236,3.242-11.567,4.263-16.591,2.376
			c-5.802-2.18-7.876-8.592-7.394-14.284C110.188,134.23,108.989,134,108.918,134.787"/>
		
			<path clip-path="url(#SVGID_22_)" fill="none" stroke="#B85F28" stroke-width="1.225" stroke-linecap="round" stroke-linejoin="round" stroke-miterlimit="10" d="
			M124.471,126.685c17.728-1.682,35.882,1.377,52.078,8.776"/>
		
			<path clip-path="url(#SVGID_22_)" fill="none" stroke="#B85F28" stroke-width="1.225" stroke-linecap="round" stroke-linejoin="round" stroke-miterlimit="10" d="
			M124.42,132.507c21.784,2.89,42.96,10.277,61.813,21.565"/>
		
			<path clip-path="url(#SVGID_22_)" fill="none" stroke="#B85F28" stroke-width="1.225" stroke-linecap="round" stroke-linejoin="round" stroke-miterlimit="10" d="
			M123.507,137.474c24.188,9.438,45.925,25.08,62.56,45.016"/>
		<path clip-path="url(#SVGID_22_)" fill="#010101" d="M68.561,99.272c-0.059-2.507-3.983-6.434-5.388-8.508
			c-1.725-2.545-3.749-5.024-5.645-7.391c-0.222-0.278-0.478-0.65-0.76-0.983c-1.287,4.036-2.101,8.007-2.564,10.702
			c2.293,1.372,5.461,2.32,7.049,3.098C63.628,97.354,66.143,98.287,68.561,99.272"/>
		<path clip-path="url(#SVGID_22_)" fill="#010101" d="M70.698,85.911c-0.255-1.724-8.035-9.459-10.769-11.153
			c-0.046,0.084-0.093,0.169-0.138,0.253c-0.899,1.686-1.679,3.525-2.351,5.395c1.869,1.106,4.325,1.879,5.978,2.683
			C65.531,84.114,68.361,85.817,70.698,85.911"/>
		<path clip-path="url(#SVGID_22_)" fill="#010101" d="M100.72,74.458c1.596-6.461,2.415-13.248,3.309-19.868
			c0.304-2.255,0.517-4.821,0.908-7.231c-2.693,0.085-6.438,0.413-10.83,1.363c0.44,4.817,1.767,9.521,2.98,14.206
			C98.077,66.753,98.922,70.941,100.72,74.458"/>
		<path clip-path="url(#SVGID_22_)" fill="#231F20" d="M95.927,105.283c0-2.952-2.393-5.345-5.346-5.345
			c-2.95,0-5.344,2.393-5.344,5.345s2.394,5.345,5.344,5.345C93.534,110.628,95.927,108.235,95.927,105.283"/>
		<path clip-path="url(#SVGID_22_)" fill="#FFFFFF" d="M92.263,105.283c0-0.928-0.753-1.681-1.681-1.681
			c-0.929,0-1.681,0.753-1.681,1.681s0.752,1.681,1.681,1.681C91.51,106.964,92.263,106.211,92.263,105.283"/>
		<path clip-path="url(#SVGID_22_)" fill="#231F20" d="M110.076,125.907c-1.718,0-8.988-0.65-9.896,1.12
			c-0.992,1.936,3.309,5.7,4.532,6.624c1.306,0.987,2.987,1.647,4.444,2.285C110.103,133.306,109.479,129.045,110.076,125.907"/>
		<path clip-path="url(#SVGID_22_)" fill="#231F20" d="M107.585,134.951c0.518,5.729-1.598,12.19-7.438,14.362
			c-5.038,1.873-12.354,0.807-16.585-2.433c-0.627-0.479-1.327,0.525-0.702,1.003c4.712,3.607,13.02,4.779,18.48,2.257
			c5.871-2.713,7.978-9.252,7.464-15.297C108.737,134.06,107.514,134.165,107.585,134.951"/>
		
			<path clip-path="url(#SVGID_22_)" fill="none" stroke="#B85F28" stroke-width="1.225" stroke-linecap="round" stroke-linejoin="round" stroke-miterlimit="10" d="
			M93.243,126.685c-17.727-1.682-35.881,1.377-52.077,8.776"/>
		
			<path clip-path="url(#SVGID_22_)" fill="none" stroke="#B85F28" stroke-width="1.225" stroke-linecap="round" stroke-linejoin="round" stroke-miterlimit="10" d="
			M93.296,132.507c-21.785,2.89-42.961,10.277-61.814,21.565"/>
		
			<path clip-path="url(#SVGID_22_)" fill="none" stroke="#B85F28" stroke-width="1.225" stroke-linecap="round" stroke-linejoin="round" stroke-miterlimit="10" d="
			M94.208,137.474c-24.188,9.438-45.925,25.08-62.559,45.016"/>
		<g opacity="0.2" clip-path="url(#SVGID_22_)">
			<g>
				<defs>
					<rect id="SVGID_23_" x="27.866" y="39.892" width="80.5" height="178.194"/>
				</defs>
				<clipPath id="SVGID_24_">
					<use xlink:href="#SVGID_23_"  overflow="visible"/>
				</clipPath>
				<path clip-path="url(#SVGID_24_)" fill="#FFFFFF" d="M108.366,47.369c-1.054-0.047-2.865-0.075-5.245,0.079
					c-0.176,0.012-0.349,0.023-0.53,0.036c-0.278,0.021-0.563,0.045-0.854,0.071c-0.206,0.019-0.417,0.04-0.63,0.061
					c-0.303,0.03-0.604,0.061-0.919,0.096c-0.204,0.024-0.421,0.055-0.63,0.08c-0.572,0.072-1.162,0.155-1.772,0.25
					c-0.245,0.038-0.489,0.076-0.739,0.118c-0.347,0.059-0.697,0.12-1.054,0.187c-0.265,0.049-0.535,0.103-0.806,0.155
					c-3.172,0.628-6.698,1.568-10.436,2.999c-0.188,0.073-0.363,0.155-0.55,0.229c-2.81-6.947-9.494-11.838-17.299-11.838
					c-10.339,0-18.72,8.576-18.72,19.154c0,7.719,4.471,14.353,10.897,17.387c-0.188,0.395-0.37,0.795-0.546,1.2
					c-0.003,0.006-0.005,0.012-0.007,0.017c-0.39,0.9-0.75,1.823-1.085,2.753l-0.001,0.002c-0.238,0.66-0.461,1.323-0.673,1.985
					v0.002c-0.805,2.521-1.424,5.015-1.889,7.19c0,0.002,0,0.004,0,0.005c-0.092,0.429-0.177,0.843-0.257,1.243
					c-0.003,0.017-0.006,0.032-0.01,0.048c-0.653,3.309-0.916,5.608-0.916,5.608s-14.802,5.804-20.315,10.158l-5.516,4.353
					l16.253,4.645c0,0-6.965,8.417-8.997,11.028c-2.031,2.612-2.902,4.644-2.902,4.644h13.642c0,0-0.24,0.377-0.625,1.006
					c-0.095,0.154-0.196,0.32-0.308,0.504c-0.047,0.078-0.098,0.164-0.148,0.247c-0.045,0.075-0.088,0.147-0.135,0.226
					c-1.254,0.514-2.5,1.044-3.734,1.606c-0.307,0.141-0.441,0.504-0.302,0.811c0.103,0.227,0.325,0.359,0.557,0.359
					c0.085,0,0.173-0.018,0.255-0.056c0.725-0.331,1.455-0.643,2.187-0.955c-0.067,0.115-0.136,0.233-0.203,0.353
					c-0.048,0.085-0.095,0.164-0.144,0.249c-0.184,0.325-0.373,0.66-0.563,1.003c-0.045,0.082-0.09,0.166-0.135,0.248
					c-0.147,0.267-0.294,0.535-0.442,0.809c-0.066,0.124-0.132,0.249-0.199,0.374c-0.129,0.241-0.257,0.483-0.384,0.729
					c-0.069,0.134-0.138,0.267-0.207,0.399c-0.136,0.266-0.269,0.532-0.401,0.799c-0.053,0.105-0.106,0.212-0.158,0.318
					c-0.182,0.371-0.36,0.741-0.53,1.109c-0.024,0.053-0.046,0.104-0.069,0.157c-0.143,0.31-0.279,0.618-0.41,0.921
					c-0.049,0.116-0.096,0.229-0.143,0.342c-0.102,0.242-0.195,0.479-0.287,0.712c-0.047,0.122-0.093,0.242-0.137,0.36
					c-0.085,0.232-0.163,0.456-0.237,0.678c-0.032,0.102-0.069,0.205-0.101,0.306c-0.098,0.312-0.184,0.614-0.251,0.898
					c-0.146,0.617-0.269,1.22-0.371,1.803c-0.13,0.736-0.228,1.437-0.302,2.097c-2.289,1.222-4.547,2.493-6.764,3.821
					c-0.291,0.175-0.387,0.551-0.212,0.841c0.115,0.191,0.317,0.298,0.525,0.298c0.108,0,0.217-0.028,0.315-0.087
					c1.969-1.18,3.971-2.307,5.996-3.401c-0.009,0.112-0.019,0.229-0.025,0.337c-0.014,0.224-0.025,0.437-0.034,0.642
					c-0.019,0.407-0.027,0.776-0.03,1.102c-0.002,0.162-0.002,0.314-0.002,0.453c0.004,0.696,0.032,1.093,0.032,1.093
					s2.5-1,6.698-2.052c0.299-0.075,0.607-0.151,0.925-0.227c0.634-0.15,1.301-0.301,1.999-0.447
					c2.443-0.517,5.27-0.993,8.377-1.315c0.888-0.091,1.798-0.171,2.73-0.234c1.396-0.095,2.84-0.155,4.321-0.172
					c0.007,0,0.015,0,0.021,0c-0.637,1.404-1.246,2.838-1.815,4.285c-11.058,7.793-21.11,17.009-29.812,27.437
					c-0.217,0.26-0.182,0.646,0.078,0.861c0.114,0.097,0.254,0.144,0.392,0.144c0.175,0,0.35-0.075,0.471-0.22
					c8.244-9.882,17.707-18.675,28.099-26.182c-1.379,3.805-2.43,7.615-2.888,11.057c-1.293,9.701-1.993,15.899-2.45,25.641
					c-0.275,5.905-0.317,12.253,0.408,18.055c0.525,4.194,0.633,4.333,5.29,4.906c5.63,0.692,11.69,0.813,17.372,0.8
					c9.03-0.02,20.816,1.063,30.416,0.912V47.369z"/>
			</g>
		</g>
	</g>
</g>
<g id="Layer_5">
	<path fill="#FFCB3C" d="M212.275,110C212.275,53.514,166.484,7.724,110,7.724C53.514,7.724,7.724,53.514,7.724,110
		S53.514,212.276,110,212.276C166.484,212.276,212.275,166.486,212.275,110"/>
	<g>
		<defs>
			<path id="SVGID_25_" d="M7.724,110c0,56.485,45.79,102.276,102.276,102.276c56.485,0,102.276-45.791,102.276-102.276
				C212.276,53.514,166.485,7.724,110,7.724C53.514,7.724,7.724,53.514,7.724,110"/>
		</defs>
		<clipPath id="SVGID_26_">
			<use xlink:href="#SVGID_25_"  overflow="visible"/>
		</clipPath>
		<path clip-path="url(#SVGID_26_)" fill="#82868A" d="M165.903,173.749c-0.413-8.298-1.286-17.184-3.24-25.294
			c-1.727-7.167-3.87-25.107-9.688-29.076c-3.419-8.652-21.981-7.695-30.064-5.142c-9.278,2.93-12.438,7.246-13.357,13.215
			c-0.92-5.969-4.079-10.285-13.356-13.215c-8.083-2.554-26.646-3.511-30.065,5.142c-5.818,3.969-7.962,21.909-9.688,29.076
			c-1.953,8.11-2.826,16.996-3.24,25.294c-0.329,6.606-0.799,14.533,0.443,20.914c2.038,10.457,15.385,14.738,24.734,16.816
			c9.855,2.189,20.776,1.837,30.896,1.39c0.107-0.717,0.186-1.437,0.277-2.155c0.093,0.719,0.171,1.438,0.277,2.155
			c10.12,0.447,21.04,0.8,30.896-1.39c9.351-2.078,22.697-6.359,24.734-16.816C166.703,188.282,166.232,180.355,165.903,173.749
			 M109.553,141.777c0.228,5.528,0.172,11.092,0,16.672C109.381,152.869,109.327,147.306,109.553,141.777"/>
		<path clip-path="url(#SVGID_26_)" fill="#C1BDBB" d="M154.31,148.803c-1.604-4.339-3.673-7.912-3.117-12.719
			c0.514-4.431,2.221-7.832,2.229-12.696c-1.275-5.124-13.797-8.371-18.527-8.952c-7.328-0.898-18.291-1.896-25.341,1.95
			c-7.049-3.847-18.012-2.849-25.34-1.95c-4.731,0.581-17.253,3.828-18.527,8.952c0.007,4.864,1.715,8.266,2.228,12.696
			c0.557,4.807-1.513,8.38-3.116,12.719c-3.644,9.853,1.186,21.186,7.138,29.388c7.484,10.313,17.721,19.25,29.845,23.936
			c2.637,1.019,5.353,1.757,7.773,1.506c2.421,0.251,5.137-0.487,7.772-1.506c12.124-4.686,22.362-13.622,29.846-23.936
			C153.124,169.988,157.952,158.655,154.31,148.803"/>
		<path clip-path="url(#SVGID_26_)" fill="#82868A" d="M89.296,74.929C86.13,60.409,70.2,47.814,56.03,47.344
			c-9.989-0.333-34.758,10.3-20.325,22.533c-11.396,2.151-10.476,12.458,0.75,13.304c-3.755,6.707-3.228,13.491,6.472,13.776
			c-0.509,13.623,23.146,17.775,32.641,12.248C88.34,101.771,84.804,85.407,89.296,74.929"/>
		<path clip-path="url(#SVGID_26_)" fill="#C1BDBB" d="M74.691,118.74c14.016-14.661,13.443-34.788,0.611-49.271
			c-4.919-5.553-9.954-10.712-18.163-10.696c-7.724,0.015-12.635,5.286-11.654,13.164c0.688,5.518,4.903,5.851,4.873,7.533
			c-0.032,1.746-2.525,2.862-2.776,6.217c-0.432,5.746,2.147,8.027,7.557,9.731c-5.228,9.714,10.596,10.336,16.166,10.482
			C73.176,110.436,70.679,115.822,74.691,118.74"/>
		<path clip-path="url(#SVGID_26_)" fill="#82868A" d="M129.811,74.929c3.166-14.52,19.095-27.114,33.265-27.585
			c9.99-0.333,34.758,10.3,20.326,22.533c11.395,2.151,10.475,12.458-0.75,13.304c3.754,6.707,3.227,13.491-6.473,13.776
			c0.51,13.623-23.146,17.775-32.641,12.248C130.766,101.771,134.302,85.407,129.811,74.929"/>
		<path clip-path="url(#SVGID_26_)" fill="#C1BDBB" d="M144.414,118.74c-14.015-14.661-13.442-34.788-0.61-49.271
			c4.919-5.553,9.953-10.712,18.162-10.696c7.725,0.015,12.636,5.286,11.654,13.164c-0.687,5.518-4.903,5.851-4.873,7.533
			c0.032,1.746,2.526,2.862,2.777,6.217c0.431,5.746-2.148,8.027-7.558,9.731c5.228,9.714-10.596,10.336-16.166,10.482
			C145.932,110.436,148.427,115.822,144.414,118.74"/>
		<path clip-path="url(#SVGID_26_)" fill="#82868A" d="M158.97,93.271c-4.761-10.965-9.466-21.866-18.704-29.938
			c-8.366-7.311-19.696-7.539-30.369-7.545c0.001-0.002,0.001-0.002,0.002-0.002c-0.114,0-0.23,0-0.346,0s-0.23,0-0.346,0
			c0.001,0,0.001,0,0.002,0.002c-10.672,0.006-22.003,0.234-30.369,7.545c-9.238,8.071-13.943,18.973-18.704,29.938
			c-3.293,7.585-5.866,19.184-2.867,27.344c3.771,10.263,14.796,16.54,24.557,19.783c8.355,2.777,18.965,2.973,27.728,2.552
			c8.763,0.421,19.372,0.226,27.729-2.552c9.759-3.243,20.784-9.521,24.555-19.783C164.836,112.455,162.263,100.856,158.97,93.271
			 M109.553,56.016c0.729,0.493,0.454,0.444,0,0.455C109.099,56.46,108.825,56.509,109.553,56.016"/>
		<path clip-path="url(#SVGID_26_)" fill="#231F20" d="M109.084,118.754c1.486,5.514-1.951,10.125-7.097,11.931
			c-4.438,1.56-8.553,0.847-12.685-1.121c-0.265-0.125-0.545,0.192-0.323,0.418c7.193,7.319,25.273-0.461,20.544-11.413
			C109.413,118.313,109.015,118.497,109.084,118.754"/>
		<path clip-path="url(#SVGID_26_)" fill="#231F20" d="M94.236,94.432c0-3.221-2.611-5.831-5.831-5.831
			c-3.221,0-5.832,2.61-5.832,5.831c0,3.222,2.611,5.831,5.832,5.831C91.625,100.263,94.236,97.653,94.236,94.432"/>
		<path clip-path="url(#SVGID_26_)" fill="#FFFFFF" d="M90.238,94.432c0-1.013-0.821-1.834-1.834-1.834s-1.834,0.821-1.834,1.834
			c0,1.014,0.821,1.834,1.834,1.834S90.238,95.445,90.238,94.432"/>
		<path clip-path="url(#SVGID_26_)" fill="#231F20" d="M120.678,93.764c-1.631-6.641-4.571-7.673-10.438-7.783
			c-0.002-0.004-0.004-0.009-0.006-0.013c-0.235,0-0.454,0.003-0.681,0.005c-0.226-0.002-0.445-0.005-0.68-0.005
			c-0.002,0.004-0.004,0.009-0.006,0.013c-5.868,0.11-8.808,1.143-10.439,7.783c-1.211,4.928-2.235,11.218-1.95,16.388
			c0.277,5.05,2.712,10.845,11.007,12.317c0.545,0.221,1.227,0.313,2.068,0.26c0.843,0.053,1.524-0.039,2.069-0.26
			c8.295-1.473,10.729-7.268,11.007-12.317C122.913,104.981,121.888,98.691,120.678,93.764"/>
		<path clip-path="url(#SVGID_26_)" fill="#231F20" d="M110.76,118.568c-4.729,10.951,13.352,18.731,20.544,11.414
			c0.222-0.226-0.057-0.545-0.322-0.418c-4.133,1.966-8.246,2.679-12.686,1.121c-5.145-1.807-8.583-6.418-7.096-11.932
			C111.269,118.5,110.871,118.311,110.76,118.568"/>
		<path clip-path="url(#SVGID_26_)" fill="#231F20" d="M124.87,94.432c0-3.221,2.61-5.831,5.831-5.831s5.832,2.61,5.832,5.831
			c0,3.222-2.611,5.831-5.832,5.831S124.87,97.653,124.87,94.432"/>
		<path clip-path="url(#SVGID_26_)" fill="#FFFFFF" d="M128.867,94.432c0-1.013,0.821-1.834,1.834-1.834
			c1.014,0,1.834,0.821,1.834,1.834c0,1.014-0.82,1.834-1.834,1.834C129.688,96.266,128.867,95.445,128.867,94.432"/>
		<g opacity="0.2" clip-path="url(#SVGID_26_)">
			<g>
				<defs>
					<rect id="SVGID_27_" x="27.586" y="47.335" width="82.64" height="165.869"/>
				</defs>
				<clipPath id="SVGID_28_">
					<use xlink:href="#SVGID_27_"  overflow="visible"/>
				</clipPath>
				<path clip-path="url(#SVGID_28_)" fill="#FFFFFF" d="M110.225,55.789c-0.108,0-0.219-0.001-0.328-0.001
					c0.001,0,0.001-0.001,0.002-0.001c-0.114,0-0.23,0-0.346,0s-0.23,0-0.346,0c0.001,0,0.001,0.001,0.002,0.001
					c-9.372,0.006-19.252,0.187-27.187,5.181c-6.709-7.824-16.726-13.317-25.991-13.626c-9.99-0.333-34.759,10.301-20.326,22.534
					c-11.396,2.151-10.476,12.458,0.75,13.304c-3.754,6.706-3.228,13.491,6.472,13.776c-0.261,6.969,5.806,11.453,13.063,13.438
					c-0.185,3.628,0.156,7.166,1.279,10.222c0.933,2.537,2.312,4.829,4.002,6.895c-2.393,6.979-3.701,16.261-4.829,20.943
					c-1.952,8.11-2.825,16.997-3.239,25.295c-0.329,6.605-0.799,14.533,0.443,20.914c2.038,10.457,15.385,14.738,24.734,16.816
					c9.855,2.189,20.776,1.837,30.896,1.39c0.107-0.717,0.186-1.437,0.277-2.155c0.093,0.719,0.17,1.438,0.277,2.155
					c0.131,0.005,0.265,0.01,0.395,0.017V55.789z M109.553,56.47c-0.454-0.01-0.728,0.039,0-0.454
					C110.281,56.509,110.007,56.46,109.553,56.47"/>
			</g>
		</g>
	</g>
</g>
<g id="Layer_6" display="none">
	<path display="inline" fill="#5BCAF4" d="M212.276,110C212.276,53.514,166.485,7.724,110,7.724S7.724,53.514,7.724,110
		S53.515,212.276,110,212.276S212.276,166.486,212.276,110"/>
	<g display="inline">
		<defs>
			<path id="SVGID_29_" d="M7.725,110c0,56.485,45.791,102.276,102.275,102.276c56.486,0,102.276-45.791,102.276-102.276
				S166.486,7.724,110,7.724C53.516,7.724,7.725,53.515,7.725,110"/>
		</defs>
		<clipPath id="SVGID_30_">
			<use xlink:href="#SVGID_29_"  overflow="visible"/>
		</clipPath>
		<path clip-path="url(#SVGID_30_)" fill="#82868A" d="M156.235,40.348c-9.829,0.289-16.188,6.359-16.188,6.359
			s-3.447-3.237-12.433-6.938c-5.994-2.469-12.092-3.403-17.726-3.396v-0.005c-0.103-0.001-0.209,0.004-0.312,0.003
			c-0.103,0.001-0.209-0.004-0.312-0.003v0.005c-5.633-0.008-11.73,0.927-17.725,3.396c-8.986,3.701-12.432,6.938-12.432,6.938
			s-6.359-6.07-16.189-6.359c-9.83-0.29-12.721,0.866-12.432,6.648s1.156,18.503,4.914,25.441c3.759,6.938,4.626,8.384,7.807,6.938
			c3.18-1.445,10.407-9.83,13.01-13.588c2.602-3.759,3.18-6.36,3.18-6.36s5.492,12.432,5.781,21.394s0,16.768-1.155,22.261
			c-1.157,5.493-13.425,31.278-17.347,41.92c-5.631,15.278-8.945,44.155-7.517,65.337c1.673,24.799,5.647,47.076,10.408,61.58
			c5.396,16.438,7.517,21.394,9.251,23.418c1.734,2.023,19.659,3.469,25.73,2.313c1.81-0.345,3.508-0.667,5.026-1.045
			c1.521,0.378,3.218,0.7,5.027,1.045c6.071,1.156,23.995-0.289,25.731-2.313c1.733-2.024,3.854-6.979,9.25-23.418
			c4.762-14.504,8.736-36.781,10.408-61.58c1.428-21.182-1.886-50.059-7.517-65.337c-3.923-10.642-16.19-36.427-17.347-41.92
			s-1.445-13.299-1.156-22.261s5.781-21.394,5.781-21.394s0.58,2.602,3.182,6.36c2.601,3.758,9.828,12.143,13.009,13.588
			s4.048,0,7.806-6.938s4.627-19.659,4.916-25.441S166.065,40.058,156.235,40.348 M113.448,245.61
			c-0.478,7.546-2.008,13.756-3.871,18.848c-1.862-5.092-3.393-11.302-3.87-18.848c-1.172-18.502-0.996-32.223,3.87-36.012
			C114.444,213.388,114.619,227.108,113.448,245.61"/>
		<path clip-path="url(#SVGID_30_)" fill="#E1D9CB" d="M93.038,108.069c-4.264,0.011-8.442-0.217-12.688-0.217
			c-6.217,0-12.623-0.623-16.25,5.253c-4.836,7.831-5.225,19.969-4.33,28.8c0.531,5.245,0.128,10.764,0.878,15.958
			c0.588,4.072,3.718,7.652,8.071,7.893c5.006,0.276,7.446-6.515,11.86-8.049c3.438-1.194,5.597,2.152,7.49,4.489
			c2.351,2.901,6.616,6.062,10.463,3.558c3.757-2.444,5.166-8.014,10.551-7.605c5.164,0.393,6.854,6.235,11.88,7.173
			c7.314,1.364,7.672-6.63,13.273-8.476c5.195-1.712,7.67,5.646,11.564,7.507c5.158,2.465,10.621,0.761,12.746-4.795
			c1.568-4.106,1.18-9.341,1.174-13.64c-0.006-4.709-0.317-9.293-0.703-13.974c-0.5-6.052,0.531-12.309-2.982-17.587
			c-4.682-7.031-14.589-7.438-22.211-6.685C126.715,108.374,97.752,108.058,93.038,108.069"/>
		<path clip-path="url(#SVGID_30_)" fill="#E1D9CB" d="M111.544,169.137c-6.188-0.199-10.333,3.387-13.489,5.768
			c-3.825,2.889-7.082,7.302-9.74,11.253c-1.826,2.713-10.842,17.513-1.146,15.588c4.806-0.954,10.185-7.702,12.953-11.453
			c1.68,3.432,2.752,7.035,6.822,8.521c4.959,1.808,9.332-3.431,10.084-7.931c2.205,3.81,18.633,16.877,19.349,6.277
			c0.64-9.484-9.052-18.443-15.396-24.223C118.39,170.579,114.796,169.268,111.544,169.137"/>
		<path clip-path="url(#SVGID_30_)" fill="#E1D9CB" d="M89.848,58.308C85.754,60.04,84.86,65.7,84.86,69.587
			c0,1.946,0.624,10.569,3.992,9.11c1.709-0.741,1.981-4.52,1.905-6.062c1.422,1.348,2.957,4.633,5.485,4.32
			c2.36-0.292,2.816-3.637,2.972-5.573c1.719,3.012,6.676,4.738,8.422,0.742c1.263-2.885,0.525-7.554-1.094-10.132
			C103.156,56.604,95.062,55.907,89.848,58.308"/>
		<path clip-path="url(#SVGID_30_)" fill="#E1D9CB" d="M129.308,58.308c4.095,1.732,4.987,7.393,4.987,11.279
			c0,1.946-0.624,10.569-3.992,9.11c-1.709-0.741-1.982-4.52-1.906-6.062c-1.422,1.348-2.955,4.633-5.484,4.32
			c-2.36-0.292-2.816-3.637-2.973-5.573c-1.718,3.012-6.675,4.738-8.422,0.742c-1.262-2.885-0.525-7.554,1.096-10.132
			C115.998,56.604,124.094,55.907,129.308,58.308"/>
		<path clip-path="url(#SVGID_30_)" fill="#231F20" d="M113.781,104.206c-4.67,0-13.832-0.882-17.72,2.2
			c-5.079,4.027,1.078,10.687,3.347,14.065c2.217,3.302,7.373,9.405,12.104,7.759c5.093-1.772,10.854-9.904,12.805-14.693
			C127.793,104.997,118.007,103.972,113.781,104.206"/>
		<path clip-path="url(#SVGID_30_)" fill="#FFFFFF" d="M117.313,109.153c0,1.317-3.592,2.385-8.023,2.385
			c-4.43,0-8.021-1.067-8.021-2.385c0-1.316,3.592-2.385,8.021-2.385C113.721,106.769,117.313,107.837,117.313,109.153"/>
		<path clip-path="url(#SVGID_30_)" fill="#231F20" d="M105.527,89.855c0-2.952-2.393-5.345-5.346-5.345
			c-2.95,0-5.344,2.393-5.344,5.345s2.394,5.346,5.344,5.346C103.135,95.201,105.527,92.808,105.527,89.855"/>
		<path clip-path="url(#SVGID_30_)" fill="#FFFFFF" d="M101.863,89.855c0-0.928-0.752-1.681-1.681-1.681s-1.681,0.753-1.681,1.681
			c0,0.929,0.752,1.682,1.681,1.682S101.863,90.784,101.863,89.855"/>
		<path clip-path="url(#SVGID_30_)" fill="#231F20" d="M124.316,89.637c0-2.952-2.393-5.345-5.344-5.345s-5.345,2.393-5.345,5.345
			s2.394,5.345,5.345,5.345S124.316,92.589,124.316,89.637"/>
		<path clip-path="url(#SVGID_30_)" fill="#FFFFFF" d="M120.652,89.637c0-0.928-0.752-1.681-1.68-1.681
			c-0.929,0-1.681,0.753-1.681,1.681s0.752,1.681,1.681,1.681C119.9,91.317,120.652,90.564,120.652,89.637"/>
		<g opacity="0.2" clip-path="url(#SVGID_30_)">
			<g>
				<defs>
					<rect id="SVGID_31_" x="50.469" y="36.368" width="59.533" height="261.691"/>
				</defs>
				<clipPath id="SVGID_32_">
					<use xlink:href="#SVGID_31_"  overflow="visible"/>
				</clipPath>
				<path clip-path="url(#SVGID_32_)" fill="#FFFFFF" d="M110.001,263.237c-0.14,0.41-0.278,0.824-0.424,1.22
					c-1.862-5.09-3.394-11.301-3.87-18.847c-1.171-18.502-0.996-32.223,3.87-36.012c0.151,0.116,0.283,0.271,0.424,0.407V36.376
					c-0.036,0-0.075-0.002-0.112-0.002v-0.005c-0.103-0.002-0.207,0.003-0.312,0.002c-0.103,0.001-0.209-0.004-0.312-0.002v0.005
					c-5.633-0.009-11.73,0.927-17.725,3.395c-8.986,3.7-12.432,6.938-12.432,6.938s-6.36-6.071-16.19-6.36
					c-9.829-0.289-12.72,0.867-12.431,6.649c0.289,5.781,1.156,18.503,4.915,25.441c3.758,6.938,4.625,8.385,7.805,6.938
					c3.181-1.445,10.408-9.83,13.011-13.588c2.602-3.758,3.18-6.36,3.18-6.36s5.492,12.431,5.781,21.395
					c0.289,8.962,0,16.768-1.156,22.261c-0.209,0.997-0.789,2.669-1.615,4.793c-0.686-0.01-1.369-0.023-2.057-0.023
					c-6.217,0-12.623-0.623-16.252,5.252c-4.836,7.832-5.225,19.97-4.33,28.802c0.531,5.243,0.127,10.763,0.877,15.956
					c0.218,1.503,0.783,2.936,1.625,4.161c-2.795,15.034-4.106,33.544-3.11,48.316c1.672,24.798,5.647,47.075,10.408,61.579
					c5.396,16.439,7.516,21.395,9.251,23.417c1.734,2.024,19.658,3.47,25.73,2.313c1.81-0.346,3.508-0.668,5.026-1.045
					c0.134,0.033,0.287,0.063,0.424,0.095V263.237z"/>
			</g>
		</g>
	</g>
</g>
<g id="Layer_7" display="none">
	<path display="inline" fill="#FFCB3C" d="M212.276,110C212.276,53.514,166.485,7.724,110,7.724S7.724,53.514,7.724,110
		S53.515,212.276,110,212.276S212.276,166.486,212.276,110"/>
	<g display="inline">
		<defs>
			<path id="SVGID_33_" d="M7.724,110c0,56.485,45.791,102.276,102.276,102.276S212.276,166.485,212.276,110
				S166.485,7.724,110,7.724S7.724,53.515,7.724,110"/>
		</defs>
		<clipPath id="SVGID_34_">
			<use xlink:href="#SVGID_33_"  overflow="visible"/>
		</clipPath>
		<path clip-path="url(#SVGID_34_)" fill="#B99B89" d="M157.585,196.737c0.006-13.336-0.076-22.364-1.353-35.612
			c-1.394-14.483-3.1-35.47-9.01-49.105c-14.67-10.598-34.643,1.571-37.288,13.021c-0.22,0.951-0.413,1.944-0.593,2.958
			c-0.349-1.012-0.657-2.005-0.877-2.958c-2.646-11.45-22.618-23.619-37.288-13.021c-5.91,13.636-7.616,34.622-9.01,49.105
			c-1.276,13.248-1.358,22.276-1.353,35.612c0.002,4.47-0.798,10.018,0.468,14.152c1.032,3.375,0.207,2.75,4.018,3.859
			c4.619,1.346,9.738,2.703,14.462,3.69c5.75,1.202,11.326,0.604,17.071,0.352c1.123-0.049,10.109,0.011,17.35-0.168
			c1.618,0.957,5.563,0.089,7.384,0.168c5.745,0.253,11.321,0.851,17.071-0.352c4.724-0.987,9.844-2.345,14.463-3.69
			c3.811-1.109,2.984-0.484,4.017-3.859C158.383,206.755,157.583,201.207,157.585,196.737"/>
		<g opacity="0.5" clip-path="url(#SVGID_34_)">
			<g>
				<defs>
					<rect id="SVGID_35_" x="60.567" y="107.952" width="97.265" height="111.213"/>
				</defs>
				<clipPath id="SVGID_36_">
					<use xlink:href="#SVGID_35_"  overflow="visible"/>
				</clipPath>
				<path clip-path="url(#SVGID_36_)" fill="#B99B89" d="M157.585,196.737c0.006-13.336-0.076-22.364-1.353-35.612
					c-1.394-14.483-3.1-35.47-9.01-49.105c-14.67-10.598-34.643,1.571-37.288,13.021c-0.22,0.951-0.413,1.944-0.593,2.958
					c-0.349-1.012-0.657-2.005-0.877-2.958c-2.646-11.45-22.618-23.619-37.288-13.021c-5.91,13.636-7.616,34.622-9.01,49.105
					c-1.276,13.248-1.358,22.276-1.353,35.612c0.002,4.47-0.798,10.018,0.468,14.152c1.032,3.375,0.207,2.75,4.018,3.859
					c4.619,1.346,9.738,2.703,14.462,3.69c5.75,1.202,11.326,0.604,17.071,0.352c1.123-0.049,10.109,0.011,17.35-0.168
					c1.618,0.957,5.563,0.089,7.384,0.168c5.745,0.253,11.321,0.851,17.071-0.352c4.724-0.987,9.844-2.345,14.463-3.69
					c3.811-1.109,2.984-0.484,4.017-3.859C158.383,206.755,157.583,201.207,157.585,196.737"/>
			</g>
		</g>
		<path clip-path="url(#SVGID_34_)" fill="#8D5A3C" d="M92.673,67.212c-0.471-2.353-2.787-4.294-4.476-5.84
			c-1.981-1.813-4.124-3.484-6.165-5.253c-1.648-1.427-3.287-2.879-4.936-4.308c-1.256-1.088-2.691-1.857-3.967-2.937
			c-2.385-2.018-5.838-3.882-9.066-3.942c-2.028-0.037-2.568,2.716-2.885,4.451c-0.606,3.313-0.232,6.688,0.281,9.996
			c0.586,3.773,0.605,7.556,1.33,11.302c0.383,1.973,0.715,4.506,2.02,6.115c1.76-1.202,3.517-1.998,5.486-2.884
			c2.519-1.134,5.615-2.391,8.271-3.138c2.695-0.759,5.298-1.479,7.898-2.522C88.48,67.446,90.319,66.768,92.673,67.212"/>
		<path clip-path="url(#SVGID_34_)" fill="#E38383" d="M67.273,73.352c-1.131-5.959-4.364-13.803-4.08-19.915
			c0.08-1.716,0.362-3.395,2.166-3.567c1.853-0.178,3.093,0.758,4.41,1.883c1.843,1.572,3.788,3.084,5.582,4.705
			c1.709,1.544,3.315,3.292,4.729,5.104c0.602,0.771,2.114,2.156,2.135,3.164c-2.621,0.688-5.543,2.363-7.889,3.691
			c-1.677,0.948-1.66,2.26-3.346,3.183C70.194,72.03,68.544,73.686,67.273,73.352"/>
		<path clip-path="url(#SVGID_34_)" fill="#8D5A3C" d="M128.781,67.212c0.471-2.353,2.787-4.294,4.476-5.84
			c1.981-1.813,4.124-3.484,6.165-5.253c1.648-1.427,3.287-2.879,4.936-4.308c1.257-1.088,2.691-1.857,3.968-2.937
			c2.384-2.018,5.837-3.882,9.065-3.942c2.028-0.037,2.568,2.716,2.886,4.451c0.605,3.313,0.231,6.688-0.281,9.996
			c-0.586,3.773-0.606,7.556-1.331,11.302c-0.382,1.973-0.714,4.506-2.021,6.115c-1.759-1.202-3.516-1.998-5.484-2.884
			c-2.52-1.134-5.616-2.391-8.272-3.138c-2.695-0.759-5.298-1.479-7.897-2.522C132.974,67.446,131.135,66.768,128.781,67.212"/>
		<path clip-path="url(#SVGID_34_)" fill="#E38383" d="M154.181,73.352c1.131-5.959,4.365-13.803,4.08-19.915
			c-0.08-1.716-0.362-3.395-2.166-3.567c-1.854-0.178-3.093,0.758-4.411,1.883c-1.842,1.572-3.787,3.084-5.581,4.705
			c-1.709,1.544-3.316,3.292-4.73,5.104c-0.601,0.771-2.113,2.156-2.134,3.164c2.621,0.688,5.543,2.363,7.89,3.691
			c1.676,0.948,1.659,2.26,3.345,3.183C151.26,72.03,152.91,73.686,154.181,73.352"/>
		<path clip-path="url(#SVGID_34_)" fill="#B99B89" d="M175.736,95.921c0.173-3.274-6.326-5.507-7.765-8.318
			c2.4-1.547,5.882-0.491,8.089-2.319c-2.188-3.886-7.468-7.207-11.357-9.575C155.969,70.392,130.87,59.083,110,58.731
			c-19.906-0.336-45.97,11.66-54.703,16.977c-3.89,2.368-9.169,5.689-11.358,9.575c2.207,1.828,5.689,0.772,8.09,2.319
			c-1.438,2.812-7.938,5.044-7.766,8.318c4.075,1.462,8.439,0.263,4.971,4.988c-2.382,3.246-4.024,4.691,0.52,6.261
			c4.337,1.499,3.732,1.315,3.669,5.553c-0.041,2.813,0.149,3.72,2.476,5.392c3.743,2.69,8.221,5.517,12.487,7.571
			c2.429,1.17,5.106,2.267,7.159,4.081c4.41,3.896,9.391,10.442,14.818,13.855c5.322,3.346,12.481,6.016,19.638,6.016
			c7.157,0,12.153-1.866,17.475-5.211c5.428-3.412,12.571-10.764,16.981-14.66c2.053-1.814,4.729-2.911,7.16-4.081
			c4.267-2.055,8.742-4.881,12.485-7.571c2.327-1.672,2.519-2.578,2.477-5.392c-0.063-4.237-0.667-4.054,3.669-5.553
			c4.544-1.569,2.9-3.015,0.519-6.261C167.298,96.184,171.663,97.383,175.736,95.921"/>
		<path clip-path="url(#SVGID_34_)" fill="#8D5A3C" d="M120.039,95.905c3.869-2.247,6.674-3.555,11.235-3.83
			c2.643-0.16,5.555-0.018,8.047-1.019c3.229-1.297,2.498-2.913-0.742-3.067c-2.929-0.139-5.563,1.554-8.241,2.591
			c2.038-2.166,5.313-6.427,5.245-9.445c-4.553-0.157-8.331,4.499-11.163,7.555c0.024-2.697,1.595-6.97-0.092-9.354
			C119.415,81.643,120.039,91.286,120.039,95.905"/>
		<path clip-path="url(#SVGID_34_)" fill="#8D5A3C" d="M99.961,95.905c-3.87-2.247-6.674-3.555-11.236-3.83
			c-2.642-0.16-5.554-0.018-8.046-1.019c-3.23-1.297-2.498-2.913,0.742-3.067c2.928-0.139,5.563,1.554,8.241,2.591
			c-2.038-2.166-5.313-6.427-5.245-9.445c4.553-0.157,8.331,4.499,11.163,7.555c-0.024-2.697-1.597-6.97,0.092-9.354
			C100.585,81.643,99.961,91.286,99.961,95.905"/>
		<path clip-path="url(#SVGID_34_)" fill="#231F20" d="M99.487,104.983c0-3.257-2.64-5.897-5.896-5.897
			c-3.258,0-5.898,2.641-5.898,5.897s2.641,5.896,5.898,5.896C96.848,110.88,99.487,108.24,99.487,104.983"/>
		<path clip-path="url(#SVGID_34_)" fill="#FFFFFF" d="M95.444,104.983c0-1.024-0.83-1.855-1.854-1.855s-1.854,0.831-1.854,1.855
			c0,1.023,0.83,1.854,1.854,1.854S95.444,106.007,95.444,104.983"/>
		<path clip-path="url(#SVGID_34_)" fill="#231F20" d="M131.925,104.983c0-3.257-2.641-5.897-5.897-5.897s-5.898,2.641-5.898,5.897
			s2.642,5.896,5.898,5.896S131.925,108.24,131.925,104.983"/>
		<path clip-path="url(#SVGID_34_)" fill="#FFFFFF" d="M127.882,104.983c0-1.024-0.83-1.855-1.855-1.855
			c-1.023,0-1.854,0.831-1.854,1.855c0,1.023,0.83,1.854,1.854,1.854C127.052,106.838,127.882,106.007,127.882,104.983"/>
		<path clip-path="url(#SVGID_34_)" fill="#E1D9CB" d="M109.696,126.886c-1.133-2.362-5.69-4.777-8-5.944
			c-2.635-1.332-5.498-1.856-8.449-1.715c-4.436,0.213-9.578,3.249-10.982,7.659c-1.498,4.702-0.683,9.859,3.549,13.059
			c5.073,3.835,11.98,3.382,16.899,1.695c2.942-1.009,6.078-3.342,7.321-6.308C111.106,132.771,111.748,127.735,109.696,126.886"/>
		<path clip-path="url(#SVGID_34_)" fill="#E1D9CB" d="M109.947,126.886c1.133-2.362,5.69-4.777,7.999-5.944
			c2.635-1.332,5.499-1.856,8.45-1.715c4.436,0.213,9.578,3.249,10.981,7.659c1.498,4.702,0.684,9.859-3.548,13.059
			c-5.073,3.835-11.98,3.382-16.899,1.695c-2.942-1.009-6.078-3.342-7.321-6.308C108.536,132.771,107.896,127.735,109.947,126.886"
			/>
		<path clip-path="url(#SVGID_34_)" fill="#E38383" d="M110.217,133.232c-0.536-4.085-2.651-2.292-5.288-3.076
			c-2.84-0.846-2.381-4.146,0.372-4.77c2.53-0.572,5.568-0.265,8.187-0.234c2.292,0.026,6.272,2.467,2.539,4.735
			C113.899,131.181,109.927,129.799,110.217,133.232"/>
		<g opacity="0.2" clip-path="url(#SVGID_34_)">
			<g>
				<defs>
					<rect id="SVGID_37_" x="43.938" y="44.933" width="66.398" height="174.232"/>
				</defs>
				<clipPath id="SVGID_38_">
					<use xlink:href="#SVGID_37_"  overflow="visible"/>
				</clipPath>
				<path clip-path="url(#SVGID_38_)" fill="#FFFFFF" d="M110.337,58.744c-0.112-0.002-0.227-0.012-0.337-0.014
					c-6.693-0.112-14.08,1.172-21.272,3.124c-0.181-0.164-0.361-0.326-0.531-0.481c-1.979-1.813-4.123-3.485-6.164-5.254
					c-1.648-1.427-3.287-2.879-4.936-4.308c-1.257-1.088-2.691-1.857-3.967-2.937c-2.385-2.019-5.838-3.882-9.066-3.941
					c-2.027-0.038-2.568,2.715-2.886,4.45c-0.604,3.313-0.231,6.688,0.281,9.996c0.586,3.774,0.606,7.557,1.332,11.302
					c0.057,0.297,0.114,0.609,0.173,0.928c-3.182,1.545-5.816,2.973-7.667,4.099c-3.89,2.368-9.169,5.689-11.358,9.575
					c2.207,1.828,5.689,0.772,8.09,2.318c-1.438,2.813-7.938,5.044-7.766,8.319c4.075,1.463,8.439,0.263,4.971,4.988
					c-2.381,3.246-4.024,4.69,0.52,6.262c4.337,1.498,3.732,1.314,3.669,5.552c-0.041,2.813,0.149,3.721,2.476,5.393
					c3.368,2.42,7.328,4.944,11.196,6.925c-2.757,11.969-3.927,25.695-4.927,36.085c-1.276,13.248-1.358,22.277-1.352,35.612
					c0.002,4.47-0.799,10.017,0.467,14.152c1.033,3.375,0.207,2.75,4.017,3.859c4.619,1.346,9.739,2.703,14.463,3.689
					c5.75,1.203,11.326,0.605,17.071,0.353c0.93-0.041,7.249-0.008,13.504-0.095V58.744z"/>
			</g>
		</g>
	</g>
</g>
<g id="Layer_8" display="none">
	<g display="inline">
		<path fill="#F16571" d="M212.275,110C212.275,53.514,166.484,7.724,110,7.724C53.514,7.724,7.724,53.514,7.724,110
			S53.514,212.276,110,212.276C166.484,212.276,212.275,166.486,212.275,110"/>
		<g>
			<defs>
				<path id="SVGID_39_" d="M7.724,110c0,56.485,45.79,102.276,102.276,102.276c56.485,0,102.276-45.791,102.276-102.276
					S166.485,7.724,110,7.724C53.514,7.724,7.724,53.515,7.724,110"/>
			</defs>
			<clipPath id="SVGID_40_">
				<use xlink:href="#SVGID_39_"  overflow="visible"/>
			</clipPath>
			<path clip-path="url(#SVGID_40_)" fill="#676767" d="M69.563,106.507c0,0-9.364-9.364-19.063-5.352
				c-9.697,4.014-10.701,14.382-3.01,17.057c7.692,2.676,16.389,3.679,19.398,1.672C69.896,117.878,69.563,106.507,69.563,106.507"
				/>
			<path clip-path="url(#SVGID_40_)" fill="#676767" d="M150.437,106.507c0,0,9.364-9.364,19.063-5.352
				c9.698,4.014,10.702,14.382,3.01,17.057c-7.692,2.676-16.388,3.679-19.398,1.672
				C150.103,117.878,150.437,106.507,150.437,106.507"/>
			<path clip-path="url(#SVGID_40_)" fill="#676767" d="M223.455,369.372c-4.905-5.797-19.62-4.013-19.62-4.013
				s9.81-14.269,14.715-28.093c4.905-13.823,8.026-45.037-2.229-53.509c-10.257-8.474-30.322,10.256-30.322,10.256
				c-2.021,3.032-12.839,20.633-23.689,39.221c3.825-14.416,7.116-27.278,7.638-30.749c1.337-8.918-3.568-106.127-11.148-119.951
				c-6.762-12.329-40.814-15.078-48.1-15.529v-0.077c0,0-0.261,0.012-0.698,0.037c-0.438-0.025-0.699-0.037-0.699-0.037l0.001,0.077
				c-7.286,0.451-41.339,3.2-48.1,15.529c-7.581,13.824-12.486,111.033-11.148,119.951c0.521,3.471,3.812,16.333,7.637,30.749
				c-10.851-18.588-21.668-36.188-23.689-39.221c0,0-20.066-18.729-30.322-10.256c-10.256,8.472-7.134,39.686-2.229,53.509
				c4.904,13.824,14.715,28.093,14.715,28.093s-14.715-1.784-19.62,4.013c-4.906,5.798-0.892,13.378,2.229,13.823
				c2.476,0.354,50.635,0.427,72.483-0.892h38.49h0.505h38.491c21.848,1.318,70.008,1.246,72.481,0.892
				C224.347,382.75,228.36,375.17,223.455,369.372"/>
			<path clip-path="url(#SVGID_40_)" fill="#333333" d="M204.727,237.382c-4.905-39.686-32.106-70.899-43.254-107.91
				c-11.147-37.012-7.946-49.091-20.957-75.359c-10.474-21.146-28.945-20.921-33.012-20.597c-5.32-0.048-18.733,1.848-28.02,20.597
				c-13.012,26.269-9.81,38.348-20.958,75.359c-11.147,37.011-38.349,68.225-43.254,107.91
				c-4.905,39.687,6.243,90.074,11.148,108.804c4.904,18.728,11.594,32.105,18.728,33.442c7.135,1.339,10.702-8.472,10.702-8.472
				s1.338,9.811,8.027,9.811c6.688,0,8.918-9.364,8.918-9.364s-0.543,9.141,6.242,9.81s8.473-8.472,8.473-8.472
				s1.338,8.472,9.81,8.026c8.474-0.446,9.811-49.497,10.702-64.657c0.893-15.161-4.905-53.956-19.174-80.266
				c-7.077-13.047-14.715-34.78-6.689-46.82c7.319-10.978,24.627-14.019,27.661-14.032c2.551-0.012,20.56,2.842,28.02,14.032
				c8.025,12.04,0.388,33.773-6.689,46.82c-14.269,26.31-20.065,65.104-19.174,80.266c0.892,15.16,2.229,64.211,10.702,64.657
				c8.472,0.445,9.81-8.026,9.81-8.026s1.688,9.141,8.473,8.472s6.242-9.81,6.242-9.81s2.23,9.364,8.919,9.364
				s8.026-9.811,8.026-9.811s3.567,9.811,10.702,8.472c7.134-1.337,13.823-14.715,18.728-33.442
				C198.483,327.456,209.632,277.068,204.727,237.382"/>
			<path clip-path="url(#SVGID_40_)" fill="#8C8C8C" d="M147.566,118.212c-2.988-17.2-8.871-35.784-8.871-35.784
				s-1.564-0.938-7.341-1.338c-4.585-0.317-17.2-1.154-23.118-1.058c-4.393-0.097-15.006,0.74-19.591,1.058
				c-5.777,0.399-7.342,1.338-7.342,1.338s-5.883,18.584-8.871,35.784c-3.428,19.732-4.588,30.099,7.647,43.811
				c10.215,11.447,24.998,11.196,29.447,11.12c4.653-0.08,18.813,2.437,30.392-11.12
				C151.854,148.049,150.994,137.944,147.566,118.212"/>
		</g>
		<g>
			<defs>
				<path id="SVGID_41_" d="M108.237,80.031c-4.394-0.095-15.007,0.742-19.592,1.059c-5.777,0.398-7.342,1.337-7.342,1.337
					s-5.883,18.584-8.871,35.785c-3.428,19.732-4.588,30.1,7.647,43.812c10.215,11.446,24.999,11.195,29.447,11.119
					c0.646-0.011,1.477,0.029,2.459,0.067c6.081,0.242,17.963,0.485,27.933-11.187c11.936-13.975,11.075-24.079,7.647-43.812
					c-2.988-17.201-8.871-35.785-8.871-35.785s-1.564-0.938-7.341-1.337c-4.342-0.3-15.876-1.065-22.115-1.065
					C108.887,80.024,108.553,80.026,108.237,80.031"/>
			</defs>
			<clipPath id="SVGID_42_">
				<use xlink:href="#SVGID_41_"  overflow="visible"/>
			</clipPath>
			<path clip-path="url(#SVGID_42_)" fill="#B3B3B3" d="M66.33,152.436c0,0,2.675-8.695,13.822-15.384
				c11.148-6.689,19.398-6.689,19.398-6.689s-9.084-5.882-2.608-12.522c4.849-4.973,9.965,0.93,11.08,2.713
				c1.115,1.784,1.338,2.899,1.338,2.899s2.564-7.692,6.801-7.915c6.683-0.353,8.352,3.583,7.684,8.265
				c-0.669,4.682-3.114,5.892-3.114,5.892s12.04,2.899,19.844,8.25c7.804,5.352,10.033,16.723,10.033,16.723
				s-18.06,23.187-39.241,24.302C90.186,180.083,66.33,152.436,66.33,152.436"/>
			<path clip-path="url(#SVGID_42_)" fill="#333333" d="M104.01,122.727c0,1.293-1.049,2.341-2.342,2.341s-2.341-1.048-2.341-2.341
				s1.048-2.341,2.341-2.341S104.01,121.434,104.01,122.727"/>
			<path clip-path="url(#SVGID_42_)" fill="#333333" d="M119.227,122.56c0,1.293-1.049,2.341-2.342,2.341s-2.341-1.048-2.341-2.341
				s1.048-2.341,2.341-2.341S119.227,121.267,119.227,122.56"/>
		</g>
		<g>
			<defs>
				<path id="SVGID_43_" d="M7.724,110c0,56.485,45.79,102.276,102.276,102.276c56.485,0,102.276-45.791,102.276-102.276
					S166.485,7.724,110,7.724C53.514,7.724,7.724,53.515,7.724,110"/>
			</defs>
			<clipPath id="SVGID_44_">
				<use xlink:href="#SVGID_43_"  overflow="visible"/>
			</clipPath>
			<rect x="67.556" y="150.861" clip-path="url(#SVGID_44_)" fill="#333333" width="82.94" height="1.923"/>
			<path clip-path="url(#SVGID_44_)" fill="#231F20" d="M107.108,107.757c0-2.803-2.273-5.075-5.076-5.075s-5.076,2.272-5.076,5.075
				c0,2.804,2.273,5.076,5.076,5.076S107.108,110.561,107.108,107.757"/>
			<path clip-path="url(#SVGID_44_)" fill="#FFFFFF" d="M103.628,107.757c0-0.882-0.715-1.596-1.596-1.596
				c-0.882,0-1.597,0.714-1.597,1.596c0,0.883,0.715,1.597,1.597,1.597C102.913,109.354,103.628,108.64,103.628,107.757"/>
			<path clip-path="url(#SVGID_44_)" fill="#231F20" d="M121.992,107.757c0-2.803-2.272-5.075-5.076-5.075
				c-2.803,0-5.076,2.272-5.076,5.075c0,2.804,2.273,5.076,5.076,5.076C119.72,112.833,121.992,110.561,121.992,107.757"/>
			<path clip-path="url(#SVGID_44_)" fill="#FFFFFF" d="M118.513,107.757c0-0.882-0.715-1.596-1.597-1.596s-1.597,0.714-1.597,1.596
				c0,0.883,0.715,1.597,1.597,1.597S118.513,108.64,118.513,107.757"/>
			<g opacity="0.2" clip-path="url(#SVGID_44_)">
				<g>
					<defs>
						<rect id="SVGID_45_" x="-5.752" y="33.442" width="115.027" height="349.975"/>
					</defs>
					<clipPath id="SVGID_46_">
						<use xlink:href="#SVGID_45_"  overflow="visible"/>
					</clipPath>
					<path clip-path="url(#SVGID_46_)" fill="#FFFFFF" d="M109.275,33.442c-0.733,0.007-1.338,0.038-1.772,0.073
						c-5.319-0.048-18.731,1.848-28.019,20.596c-9.338,18.854-10.326,30.399-14.26,49.095c-3.64-2.225-9.124-4.367-14.726-2.051
						c-9.697,4.015-10.701,14.381-3.009,17.057c4.617,1.605,9.587,2.603,13.479,2.715c-0.732,2.702-1.536,5.533-2.443,8.545
						c-11.148,37.011-38.35,68.224-43.254,107.911c-1.764,14.266-1.446,29.913-0.096,44.978c-4.183-1.24-8.313-1.233-11.497,1.397
						c-10.257,8.472-7.136,39.687-2.23,53.509c4.905,13.824,14.715,28.094,14.715,28.094s-14.715-1.785-19.62,4.012
						c-4.904,5.798-0.892,13.378,2.23,13.823c2.475,0.354,50.634,0.428,72.482-0.892h38.019V33.442z"/>
				</g>
			</g>
		</g>
	</g>
</g>
</svg>
